<svg xmlns="http://www.w3.org/2000/svg" width="33.667" height="30.087" viewBox="0 0 33.667 30.087">
  <g id="Group_638" data-name="Group 638" transform="translate(-1619.014 -265.378)">
    <path id="Path_6" data-name="Path 6" d="M1651.01,285.2h-23.519v-1.159l21.6-2.861a2.3,2.3,0,0,0,1.984-2.263v-7.128a2.149,2.149,0,0,0-2.149-2.15h-21.434v-1.632a2.629,2.629,0,0,0-2.626-2.627h-4.179a1.672,1.672,0,0,0,0,3.343h3.462v17.193a2.63,2.63,0,0,0,2.629,2.626h24.235a1.671,1.671,0,0,0,0-3.342Zm-14.115-4.815-4.1.543v-8.9h4.1Zm1.91-8.359h4.106v7.562l-4.106.543Zm9.882,6.8-3.866.512v-7.309h3.866Zm-17.807-6.8v9.155l-3.389.449v-9.6Z" transform="translate(0)" fill="#b7d486"/>
    <path id="Path_7" data-name="Path 7" d="M1646.029,324.409a3.3,3.3,0,1,0,3.3,3.3A3.3,3.3,0,0,0,1646.029,324.409Z" transform="translate(-14.28 -35.55)" fill="#b7d486"/>
    <path id="Path_8" data-name="Path 8" d="M1686.05,324.409a3.3,3.3,0,1,0,3.3,3.3A3.3,3.3,0,0,0,1686.05,324.409Z" transform="translate(-38.381 -35.55)" fill="#b7d486"/>
  </g>
</svg>
