<svg id="Group_620" data-name="Group 620" xmlns="http://www.w3.org/2000/svg" width="514.108" height="717.559" viewBox="0 0 514.108 717.559">
  <path id="Path_1127" data-name="Path 1127" d="M905.535,976.539c.065-.228.034-.555.385-.62" transform="translate(-538.684 -690.401)" fill="#fcfcfc"/>
  <path id="Path_1128" data-name="Path 1128" d="M905.253,976.848c.046-.543-.191-1.12.213-1.613a2.557,2.557,0,0,1-.213,1.613" transform="translate(-539.33 -691.829)" fill="#f8f7f7"/>
  <path id="Path_1129" data-name="Path 1129" d="M901.964,978.916c.4-.392.9-.2,1.376-.216a2.149,2.149,0,0,1-1.376.216" transform="translate(-546.129 -684.67)" fill="#f8f7f7"/>
  <path id="Path_1130" data-name="Path 1130" d="M1040.241,1108.345c-4.269-2.073-8.6-3.989-12.821-6.164-2.884-1.484-3.47-1.363-5.932.913-2.15,1.99-4.356,3.921-6.67,5.722-2.782.441-3.908-.586-3.449-3.227.41-2.354,1.132-4.649,1.69-6.972.293-1.2.592-2.354-.577-3.279-2.582-1.139-5.044-2.539-7.635-3.653-3.057-1.311-5.843-3.236-9.143-3.964-10.057-.472-20.08.889-30.124.441a11.114,11.114,0,0,0-8.255,3.094c-6.861,6.1-13.87,12.028-20.731,18.129a3,3,0,0,1-3.958.5c-6.633-3.76-13.5-7.08-20.151-10.809-2.786-1.564-2.773-1.6-.4-3.613,6.873-5.824,13.931-11.427,20.792-17.275,1.339-1.139,2.354-2.449,1.971-4.242-1.2-5.67-2.1-11.42-4.322-16.831a4.21,4.21,0,0,0-1.8-1.425c-8.369-4.1-16.868-7.916-25.25-12-1.536-.743-2.74-.333-3.979.771-2.505,2.227-5.133,4.319-7.851,6.3-3.1-.333-3.6-1-2.962-3.887.377-1.675,1.943-4.553,2.743-6.611.194-.5-.71-1.172-.383-1.589.071-.09-11.337-5.818-11.426-5.794-2.156.614-67.531,54.865-67.59,55.149-.352,1.752.555,1.169-.6,1.879.346.135.543.734.811,1.885,1.919,8.181,3.551,16.43,5.458,24.62a3.865,3.865,0,0,1-1.4,4.091c-3.569,3.409-7.546,6.383-10.847,10.072a3.552,3.552,0,0,0,.376,5.429,8.129,8.129,0,0,0,1.555.935q20.171,10.532,40.523,20.7c15.492,7.789,30.858,15.816,46.4,23.5,4.547,2.252,8.076,1.8,11.618-1.348,3.242-2.866,6.537-5.685,9.7-8.641a6.534,6.534,0,0,1,5.377-2.015,107.968,107.968,0,0,0,15.079.564c10.658-.487,21.273.787,31.913.491a13.06,13.06,0,0,1,2.585.278c1.854.031,2.98-1.311,4.208-2.341,12.744-10.686,25.673-21.159,38.4-31.851,9.35-7.87,18.883-15.508,28.217-23.4.852-.713,1.817-1.435,1.37-2.813a5.6,5.6,0,0,0-2.527-1.727" transform="translate(-749.624 -571.64)" fill="#fcfcfc"/>
  <path id="Path_1131" data-name="Path 1131" d="M1199.795,933.043a30.823,30.823,0,0,0-7.669-3.153c-11.3-3.217-22.52-6.669-33.782-9.983-.191-.049-.377-.09-.562-.139a1.827,1.827,0,0,1-.268-.1c-1.067-.308-2.128-.626-3.2-.935q1.522.421,3.042.845a1.218,1.218,0,0,1-.531-.8c-2.9-.556-5.759-1.141-8.582-1.826.225.077.45.157.678.24l-.417-.12c-.185-.071-.37-.132-.562-.191-.644-.161-1.286-.321-1.925-.5-.167-.031-.327-.065-.5-.108-.206-.071-.428-.13-.635-.2-1.472-.41-2.94-.851-4.406-1.339-.154-.037-.315-.068-.478-.1.108.006.209.016.305.028-.657-.219-1.318-.447-1.975-.685-5.352-1.977-11.038-3.273-16.236-5.627-4.93-2.233-9-5.877-13.749-8.453a36.621,36.621,0,0,1-6.272-3.967,19.979,19.979,0,0,1-2.477-2.89c-.062.016-.108.046-.17.059a2,2,0,0,1-.654.04l.059.114c-.077-.04-.154-.083-.225-.123a1.812,1.812,0,0,1-.836-.33,1.335,1.335,0,0,1-.244-.25,62.7,62.7,0,0,0-12.738-4.482,35,35,0,0,0-17.433-.052c-21.069,5.071-41.939,10.871-62.811,16.671a5.541,5.541,0,0,0-2.807,1.252c-.046,3.909-2.749,5.019-5.923,5.911-4.584,1.289-8.958,3.19-13.453,4.757-8.082,2.826-16.047,5.979-24.241,8.5-.345.006-.691.049-1.036.055-2.736.012-2.857-.16-2.283-2.789.213-.965.885-1.937.16-2.971-1.132-.546-2.218-.064-3.279.235q-7.885,2.226-15.752,4.492-37.356,10.8-74.642,21.77c-11.146,3.276-22.3,6.525-33.379,10-1.651.518-3.477.972-3.933,2.98-.509,2.227.78,3.8,2.3,5.192a26.061,26.061,0,0,0,2.267,1.746c6.435,4.708,12.994,9.255,19.312,14.125,4.451,3.44,9.141,6.222,14.727,7.29a7.558,7.558,0,0,0,2.156.173q10.176-1.61,20.36-3.184c15.647-5.1,30.954-11.164,46.529-16.455,4.158-1.419,4.439-1.259,5.007,3.109a7.234,7.234,0,0,0,.077.775c.481,1.993-.383,3-2.267,3.649-6.306,2.175-12.54,4.547-18.852,6.694-8.613,2.931-17.143,6.083-25.682,9.2-1.061.392-2.524.614-2.116,2.385.935,1.03,2.252,1.237,3.5,1.579,7.265,2.02,14.524,4.056,21.813,6.018,35.649,9.61,71.042,20.2,107.085,28.341a55.146,55.146,0,0,0,21.141.774c12.79-2.054,24.759-6.574,36.417-12.056,17.711-8.323,34.14-18.824,50.533-29.415,13.034-8.422,26.129-16.745,39.178-25.148,10.859-7,21.779-13.9,32.567-21,4.415-2.915,4.266-6.9-.241-9.637m-60.306-18.525c-.571-.216-1.166-.364-1.74-.562-1.163-.339-2.329-.667-3.492-1a18.6,18.6,0,0,0-3.107-.864c-.536-.414-1.268-.395-1.9-.87.661.444,1.407.417,1.944.839a20.029,20.029,0,0,1,3.473,1c1.2.243,2.338.691,3.517.993.562.139,1.1.352,1.65.537-.111-.025-.231-.046-.345-.077" transform="translate(-708.941 -875.905)" fill="#fff"/>
  <path id="Path_1132" data-name="Path 1132" d="M932.839,897.761q4.308,1.208,8.631,2.4c-.447-.16-.9-.327-1.354-.488a69.152,69.152,0,0,0-7.277-1.91" transform="translate(-481.758 -853.351)" fill="#fff"/>
  <path id="Path_1133" data-name="Path 1133" d="M790.785,1112.159q-2.083-.787-4.168-1.586V1068.43c2.039-.274,3.668.9,5.318,1.715,20.5,10.128,41.143,19.978,61.636,30.143,12.648,6.268,25.379,12.374,38.055,18.589,6.922,3.39,13.811,6.879,20.773,10.193,11.427,5.435,22.7,11.182,34.1,16.658,2.16,1.042,3.375,2.3,3.233,4.711.882,11.46.5,22.926.558,34.384a8.72,8.72,0,0,1-.462,4.075c-.688.894-1.552.567-2.351.262-5.614-2.119-10.52-5.6-15.853-8.264-1.727-.861-1.629-2.712-1.629-4.371-.016-10.119,0-20.246-.012-30.368a18.854,18.854,0,0,0-.176-3.869,4.749,4.749,0,0,0-5.957-1.447c-3.159,1.3-6.586,1.913-9.619,3.557-.608.6-.46,1.36-.466,2.091.031.3.043.586.065.882.074,6.744.062,13.478.006,20.212-.006,1.163.42,2.641-1.234,3.249-.315-.851-1.185-.972-1.848-1.287q-34.293-16.45-68.608-32.842c-.6-.287-1.169-.787-1.931-.583a5.144,5.144,0,0,1-2.749-.626q-13.086-6.358-26.249-12.565a4.836,4.836,0,0,1-3-4.667c-.648-12.016-.37-24.062-1.043-36.066-.645-1.694-2.079-2.606-3.625-2.092-3.979,1.305-8.058,2.425-11.682,4.643-.614,3.862-.207,7.74-.272,11.6-.08,4.13.006,8.261-.037,12.391-.006,1.182.173,2.44-.78,3.416" transform="translate(-786.614 -497.61)" fill="#252424"/>
  <path id="Path_1134" data-name="Path 1134" d="M1070.7,908.289c.231,1.6-.66,2.511-1.861,3.4q-43.423,32.192-86.8,64.443c-.78.577-2,.845-1.9,2.212-2.153,1.8-4.64,3.1-6.91,4.738-.839.531-1.561,1.249-2.419,1.752-.99.571-.318,1.055.018,1.573-.049.268-.172.6-.395.62-4.529.379-7.348,3.825-10.825,6.068a37.976,37.976,0,0,0-4.559,3.332c-3.165,3.146-7.04,5.386-10.455,8.225a23.815,23.815,0,0,0-2.206,1.733c-8.993,7.166-18.3,13.925-27.53,20.768a35.529,35.529,0,0,0-5.83,5.041c-2.514-.04-3.671,2.082-5.34,3.387-2.289.6-3.378,3.181-5.827,3.511-1.6-1-1.068-2.582-.907-3.924a13.5,13.5,0,0,0,.185-3.051c2.289-2.705,5.513-4.239,8.147-6.515,1.169.019,1.752-.787,2.283-1.669a142.281,142.281,0,0,1,14.369-10.822c1.163.016,1.746-.777,2.271-1.653,3.088-2.962,6.879-4.995,10.165-7.694a2.511,2.511,0,0,0,2.144-1.222,7.131,7.131,0,0,1,2.16-1.58,5.465,5.465,0,0,0,1.906-1.209,4.968,4.968,0,0,1,.549-.4,5.441,5.441,0,0,0,1.518-1.317,1.948,1.948,0,0,1,.793-.558,3.3,3.3,0,0,0,1.3-.83,4.533,4.533,0,0,1,.494-.376,6.358,6.358,0,0,0,1.382-1.286,2.983,2.983,0,0,1,.574-.351,5.394,5.394,0,0,0,1.681-1.086,4.242,4.242,0,0,1,.518-.392,5.777,5.777,0,0,0,1.376-1.28,2.411,2.411,0,0,1,.537-.33,5.321,5.321,0,0,0,1.817-1.178,4.4,4.4,0,0,1,.512-.383,9.726,9.726,0,0,0,1.527-1.157,3.942,3.942,0,0,1,.524-.386,9.434,9.434,0,0,0,1.533-1.151,3.89,3.89,0,0,1,.512-.395,6.369,6.369,0,0,0,1.394-1.293,3.37,3.37,0,0,1,.559-.339,3.9,3.9,0,0,0,1.493-1.2,3.1,3.1,0,0,1,.559-.352,3.921,3.921,0,0,0,1.521-1.209,2.951,2.951,0,0,1,.565-.358,3.741,3.741,0,0,0,1.527-1.25A11.865,11.865,0,0,1,967,979.731a7.668,7.668,0,0,0,2.5-1.533,17.873,17.873,0,0,0,2.11-1.567,20.136,20.136,0,0,0,2.11-1.586,6.9,6.9,0,0,0,1.907-1.758,1.569,1.569,0,0,1,.561-.308c.8-.161,1.141-.87,1.638-1.4a3.083,3.083,0,0,1,.555-.346,3.958,3.958,0,0,0,1.518-1.225,3.356,3.356,0,0,1,.574-.349,3.834,3.834,0,0,0,1.524-1.252,11.137,11.137,0,0,1,1.657-1.157,7.96,7.96,0,0,0,2.493-1.533,802.9,802.9,0,0,0,4.2-3.141,19.4,19.4,0,0,0,2.092-1.561,20.918,20.918,0,0,0,2.116-1.6,6.655,6.655,0,0,0,1.925-1.823,2.806,2.806,0,0,1,.561-.37,7.639,7.639,0,0,0,1.721-.953,6.861,6.861,0,0,0,1.9-1.8,2.07,2.07,0,0,1,.552-.358,6.7,6.7,0,0,0,2.017-.972,18.838,18.838,0,0,1,1.537-1.182c.845-.512,1.453-1.3,2.245-1.866.824-.518,1.648-1.043,2.434-1.62.512-.407,1.006-.83,1.555-1.188.845-.518,1.459-1.311,2.258-1.882a20.078,20.078,0,0,0,2.11-1.592,26.067,26.067,0,0,0,2.175-1.65q6.367-4.382,12.346-9.292c6.37-4.22,12.2-9.187,18.475-13.543,1.246-1.08,2.607-2.027,3.881-3.069,1.6-.944,3.036-2.123,4.532-3.2,1.274-.947,2.557-1.906,3.736-2.98.664-.423,1.317-.846,1.968-1.286.916-.626,1.759-1.367,2.681-1.993.537-.435,1.068-.876,1.635-1.28,1.428-.7,2.277-2.668,4.331-1.977v.518c-.654,1.364.062,2.86-.429,4.236" transform="translate(-557.021 -841.615)" fill="#9c9c9c"/>
  <path id="Path_1135" data-name="Path 1135" d="M971.092,883.365q4.669,9.208,9.353,18.454c-.848.469-1.265-.324-1.8-.6a61.68,61.68,0,0,0-21.761-6.324c-3.723-.413-7.342.947-10.948,1.792-21.166,4.982-42.1,10.871-63.042,16.689a7.645,7.645,0,0,1-.768.136c-1.259-1.761-.632-3.767-.7-5.679-.031-.685.552-.99,1.228-1.012,8.666-2.277,17.337-4.526,26-6.827q30.179-8.019,60.346-16.072c.4-.108.882-.037,1.061-.555Z" transform="translate(-589.156 -883.365)" fill="#323435"/>
  <path id="Path_1136" data-name="Path 1136" d="M948.989,1151.426c.108-1.438-.382-2.193-1.86-2.9-7.5-3.56-14.869-7.4-22.325-11.047-10.378-5.072-20.807-10.035-31.2-15.1-10.3-5.022-20.564-10.106-30.846-15.156-7.712-3.785-15.425-7.583-23.167-11.306-9.751-4.692-19.364-9.674-29.223-14.163-8.005-3.652-15.844-7.687-23.753-11.55v-1.564c.453.12.447-.3.614-.518,1.533-1.071,3.063-.475,4.411.262,3.477,1.916,7.086,3.511,10.68,5.179,4.217,1.95,8.351,4.116,12.488,6.265,5.513,2.872,11.124,5.556,16.739,8.224,5.543,2.647,11.173,5.134,16.544,8.089,4.711,2.6,9.628,4.726,14.49,6.968,2.678,1.234,5.056,3.011,7.826,4.047a97.34,97.34,0,0,1,11.861,5.787c4.2,2.246,8.613,4,12.8,6.274,3.631,1.981,7.416,3.69,11.164,5.454,5.321,2.5,10.513,5.269,15.838,7.774,8.82,4.143,17.42,8.742,26.351,12.66,1.037.457,2.079.9,2.49,2.11-.231,1.589-.148,3.319-1.919,4.208" transform="translate(-786.616 -499.384)" fill="#2e2e2e"/>
  <path id="Path_1137" data-name="Path 1137" d="M831.01,1125.41c-1.687-1.348-4.01-2.313-3.076-5.2a24.4,24.4,0,0,0,1.382-7.027c.006-.679.089-1.681.793-1.733.959-.065.663,1.446.709,1.459,2.283.58.978,2.736,1.8,3.924a34.118,34.118,0,0,1-.013,8.129,2.257,2.257,0,0,0-.031.453Z" transform="translate(-700.92 -407.85)" fill="#b5b0ac"/>
  <path id="Path_1138" data-name="Path 1138" d="M956.529,904.442c-1.758.244-2.7,1.86-4.2,2.532-.367-.117-.636-.321-.623-.756.845-1.5,2.477-2.122,3.646-3.261.691-.049.673.775,1.175.96Z" transform="translate(-442.421 -842.521)" fill="#d8d8d7"/>
  <path id="Path_1139" data-name="Path 1139" d="M953.225,907.841c.031-1.422-.543-2.906.429-4.236v4.159a1.913,1.913,0,0,1-.429.077" transform="translate(-439.549 -841.167)" fill="#c5c5c4"/>
  <path id="Path_1140" data-name="Path 1140" d="M830.245,1490.281c-1.2-1.777-.256-3.757-.506-5.621a27.076,27.076,0,0,1-.114-2.792c-.346-3.7-1.037-7.388-.673-11.133.009-.648.022-1.287-.024-1.932-.031-1.6-.019-3.205.018-4.8.9-12.962.256-25.95.457-38.922.031-1.709.234-3.313,2.005-4.171,3.5-1.5,7.1-2.761,10.692-4.029,1.03.679.577,1.733.583,2.616.031,11.087.065,22.184-.025,33.277a3.474,3.474,0,0,0,2.357,3.761c5.627,2.4,10.507,6.3,16.4,8.19a32.553,32.553,0,0,1,3.541-2.927,10.161,10.161,0,0,0,2.215-1.937c1.919-1.37,2.008-3.365,1.91-5.454-.049-.929-.074-1.854-.043-2.789.006-8.19-.018-16.377.006-24.562a5.782,5.782,0,0,1,2.5-5.294c1.354-1.043,2.588-2.218,3.936-3.261,8.974-7.228,17.642-14.817,26.539-22.149q19.564-16.117,39.172-32.179,24.085-19.634,48.25-39.166a4.553,4.553,0,0,0,1.984-3.989c-.123-2.52.8-4.969.484-7.509-.077-.589.136-1.228-.413-1.694-5.571-2.718-11.161-5.411-16.711-8.187a2.125,2.125,0,0,0-2.724.41c-2.69,2.258-4.967,5.025-8.095,6.753-1.286-.6-.6-1.623-.416-2.422.546-2.449,1.2-4.88,1.8-7.317q41.567-166.455,83.23-332.887c.395-1.555.4-3.307,1.764-4.507a6.733,6.733,0,0,1,2.558-3.116q15.4-11.453,30.744-22.982a5.2,5.2,0,0,1,2.706-.753c7.928.287,15.819-.845,23.747-.537,1.1.043,2.264-.083,3.153.818q-.241,4.673-.5,9.356c-.552,1.111-1.676,1.462-2.7,1.9-10.282,4.393-20.564,8.8-31.019,12.778a6.237,6.237,0,0,0-4.158,4.532c-3.19,11.448-5.716,23.059-8.2,34.671-5.389,25.176-10.347,50.447-15.329,75.709-5.139,26.027-10.4,52.033-14.527,78.245q-4.123,26.2-6.694,52.606a413.974,413.974,0,0,0-1.86,55.541c.6,17,2.774,33.813,8.675,49.993,6.524,17.9,19.132,28.884,37.235,33.909a115.4,115.4,0,0,0,24.346,3.767c22.477,1.3,44.395-2.258,66.2-6.99,9.745-2.117,19.355-4.795,28.869-7.79,1.268-.4,2.615-1.117,3.973-.157.012,5.7.012,5.683-4.97,7.709q-142.4,57.915-284.8,115.838-38.782,15.779-77.56,31.579" transform="translate(-698.564 -773.176)" fill="#323435"/>
  <path id="Path_1141" data-name="Path 1141" d="M953.857,1284.31a5.22,5.22,0,0,1-2.665-.895c-4.661-2.249-9.221-4.7-14.086-6.5a44.063,44.063,0,0,1-7.456-2.986c-16.927-8.382-34.073-16.3-50.99-24.7-2.317-1.157-4.834-1.925-6.963-3.467q-13.428-6.414-26.845-12.827a2.727,2.727,0,0,0-3.415.59,62.164,62.164,0,0,1-8.249,6.549c-1.394-.584-.487-1.58-.3-2.292,2.172-8.394,4.167-16.822,6.3-25.219,2.258-8.906,4.35-17.846,6.6-26.752,3.788-15.042,7.509-30.105,11.288-45.153,4.458-17.739,8.839-35.5,13.256-53.239,4.458-17.917,8.959-35.822,13.388-53.751,6.173-24.991,12.522-49.941,18.7-74.932q1.68-6.826,3.409-13.626a4.469,4.469,0,0,1,1.068-2.326c1.083-.685,2.169-.315,3.254,0q31.771,9.218,63.57,18.389c1.3.383,2.786.487,3.523,1.919a4.08,4.08,0,0,1,.253,1.009c.558,5.392.034,5.9-5.294,6.2-10.084.583-20.181.851-30.278,1.074-2.928.065-5.849.475-8.78.475a1.734,1.734,0,0,0-1.139,1.042c-.53,1.737-.407,3.585-1.092,5.318-.608,1.524.389,2.431,1.706,2.986,4.671,2,9.236,4.248,13.891,6.287q14.585,6.395,29.063,13c.811.37,1.66.685,1.234,1.866-.635,5.167-.352,10.384-.6,15.57-.309,6.382-.512,12.79-.75,19.185-.46,12.444-.74,24.9-1.558,37.336a40.935,40.935,0,0,1-1.005,11.991c-1.08,1.194-2.761.543-3.983,1.3a8.1,8.1,0,0,1-3.288.6c-7.53-.3-15.008.712-22.532.583a93.354,93.354,0,0,0-10.282.743c-1.255,1.731-1.511,3.835-2.024,5.812a2.566,2.566,0,0,0,1.792,3.088c8.3,3.446,16.381,7.373,24.568,11.044,4.328,1.943,8.69,3.8,12.975,5.843a3.53,3.53,0,0,1,2.07,2.5c.422,6.567-.345,13.107-.478,19.663-.142,7.583-.8,15.159-.882,22.751a18.641,18.641,0,0,1-.225,3.613,9.455,9.455,0,0,0-.37,3.825c.287,7.052-.423,14.061-.654,21.095-.364,3.618-.657,7.231-.854,10.856-.16,2.834-.469,3.159-3.264,3.7-3.943.765-7.941.478-11.911.778-6.46.5-12.944.774-19.414,1.173-.524.428-1.632-.691-1.8.691-.238,1.73-.851,3.363-1.2,5.062a2.612,2.612,0,0,0,1.585,3.35c6.318,3.069,12.713,5.941,19.1,8.851,4.88,2.221,9.674,4.648,14.554,6.876a2.631,2.631,0,0,1,1.509,2.78c-1.687,10.519-4.988,20.647-7.3,31.015-1.351,6.062-3.313,11.969-4.649,18.044-.213.984-.173,2.628-2.073,2.224" transform="translate(-691.108 -760.287)" fill="#c0c0c1"/>
  <path id="Path_1142" data-name="Path 1142" d="M1251.184,918.879c-.358,2-2.641,2.092-3.541,3.551a3.065,3.065,0,0,1-1.413,1.462c-.935.475-1.533,1.422-2.5,1.851-.6.342-.99.984-1.706,1.135a36.719,36.719,0,0,1-4.06,3.153c-1.555,1.209-3.171,2.323-4.757,3.486-1.107,1.073-2.462,1.823-3.606,2.854-6.154,4.3-11.96,9.091-18.148,13.364-4.239,3.313-8.468,6.654-12.951,9.643a4.8,4.8,0,0,1-1.61,1.283c-.851.327-1.2,1.342-2.122,1.567-.966.543-1.515,1.616-2.576,2.027-.558.352-.965.9-1.548,1.2-.818.345-1.274,1.21-2.15,1.465-.938.561-1.5,1.6-2.551,2.021-.562.352-.966.9-1.558,1.212-.691.327-1.2.981-1.977,1.166a.256.256,0,0,0-.352.173c-.555.663-1.024,1.425-1.925,1.681-.663.376-1.074,1.126-1.885,1.265h-.207l-.139.167a4.172,4.172,0,0,1-1.959,1.706,13.219,13.219,0,0,1-2.53,1.907,3.934,3.934,0,0,1-1.579,1.191,14.922,14.922,0,0,1-2.61,1.956,3.745,3.745,0,0,1-1.61,1.191,7.731,7.731,0,0,1-2.514,1.758c-.364.728-1.2.759-1.758,1.2a3.123,3.123,0,0,1-1.74,1.413h-.216l-.136.161a3.188,3.188,0,0,1-1.718,1.407l-.213-.006-.145.148c-.512.484-.725,1.373-1.672,1.283a.474.474,0,0,0-.4.271,6.267,6.267,0,0,1-2.449,2.107,3.786,3.786,0,0,1-1.58,1.179,13.208,13.208,0,0,1-2.526,1.891,4.562,4.562,0,0,1-2.086,1.428L1146.687,998a3.109,3.109,0,0,1-1.759,1.416l-.191-.009-.126.142a3.04,3.04,0,0,1-1.768,1.425l-.192-.018-.12.154a3.078,3.078,0,0,1-1.789,1.432l-.185-.019-.111.148a4.056,4.056,0,0,1-1.573,1.426l.034-.007a20.87,20.87,0,0,1-2.1,1.58l.019-.018a18.392,18.392,0,0,1-2.1,1.573l.024-.015c-.774.512-1.348,1.323-2.3,1.573l-.2-.006-.123.154a3.431,3.431,0,0,1-1.61,1.388l.09.018c-.786.5-1.354,1.311-2.314,1.561l-.188-.012-.127.151a3.9,3.9,0,0,1-1.592,1.419h.043a3.979,3.979,0,0,1-1.622.981c-.148.126-.306.24-.454.364a6.878,6.878,0,0,1-2.116,1.789l.03-.012c-.78.512-1.354,1.336-2.326,1.573l-1.848,1.311a2.694,2.694,0,0,1-2.014,1.4q-5.238,3.961-10.476,7.91c-.657.512-.925,1.567-2.027,1.45-4.96,3.557-9.906,7.145-14.622,11.038-.66.506-.922,1.573-2.03,1.435q-4.16,3.142-8.329,6.271c-1.249,2.175-3.767,2.431-5.615,3.7a46.032,46.032,0,0,1-8.218,3.153,32.76,32.76,0,0,1-9.156,1.086c-2.724.274-5.377-.555-8.082-.5a31.253,31.253,0,0,1-3.523-.225,7.177,7.177,0,0,0-2.5-.345,15.5,15.5,0,0,1-4.572-.414c-.786-.142-1.6-.135-2.385-.327a34.258,34.258,0,0,1-6.706-1.5,14.881,14.881,0,0,0-4.874-.928,4.389,4.389,0,0,1-1.484-.306,4.987,4.987,0,0,0-2.32-.941c-6.925-1.542-13.583-4.054-20.443-5.812-7.29-1.863-14.375-4.408-21.665-6.275-6.432-1.644-12.769-3.661-19.157-5.46-6.74-1.894-13.487-3.767-20.194-5.756-5.966-1.783-11.9-3.668-17.9-5.383q-36.944-10.606-73.874-21.255c-5.245-1.515-10.461-3.119-15.736-4.495-2.681-.858-5.732-.858-7.771-3.248-1-1.12-2.3-2.027-2.4-3.72-.37-2.65,1.169-4.279,3.063-5.71,1.752-.7,1.438-1.759.675-3.085q-5.964-10.328-11.118-21.088c-1.061-2.236-2.391-4.417-2.443-7.021-.864-4.655-.459-5.735,3.683-8.237,7.175-4.328,15.174-6.559,23.155-8.771q72.964-20.194,145.94-40.35c.876-.237,1.758-.928,2.557.142a7.7,7.7,0,0,1-1.178,6.074c-21.054,6.087-42.118,12.1-63.145,18.262-21.2,6.2-42.355,12.531-63.527,18.812a14.989,14.989,0,0,0-2.206.734c-1.946.9-2.335,2.323-1.228,4.22a11.288,11.288,0,0,0,3.3,3.258c8.813,6.407,17.6,12.858,26.462,19.207,2.326,1.669,5.42,1.413,7.94,2.705,2.681,1.592,5.812,1.669,8.7,2.52,1.866.549,3.742,1.3,5.769.889,3.31.377,6.413,1.527,9.585,2.437a4.306,4.306,0,0,1,1.271.938c14.055,3.915,28.1,7.872,42.18,11.741,27.233,7.481,54.423,15.128,81.854,21.881a127.508,127.508,0,0,0,14.215,2.841c13.108,1.675,25.423-1.913,37.466-6.423,18.395-6.879,35.3-16.68,51.767-27.234q41.743-26.751,83.434-53.6c.583-.376,1.191-.716,1.734-1.145,2.737-2.15,2.82-4.726.13-6.944-2.585-2.132-5.769-3.063-8.915-4.01q-21.831-6.552-43.672-13.114c.062-.987.7-.564,1.194-.481,10.852,2.872,21.718,5.692,32.554,8.619,12.91,3.486,25.8,7.074,38.694,10.6a12.172,12.172,0,0,0,1.283.185" transform="translate(-738.251 -858.443)" fill="#323435"/>
  <path id="Path_1143" data-name="Path 1143" d="M950.142,1182.3c-3.106-2.3-6.849-3.35-10.186-5.217-2.039-1.132-4.448-1.536-6.284-3.153a8.094,8.094,0,0,0-2.712-1.447c-5.019-1.734-9.458-4.68-14.3-6.772-5.013-2.175-9.828-4.775-14.758-7.1-3.594-1.7-7.194-3.5-10.754-5.34-5.673-2.915-11.294-6.056-17.118-8.542-6.6-2.807-12.809-6.383-19.382-9.258-6.336-2.776-12.546-6.083-18.722-9.338-4.816-2.539-9.9-4.553-14.78-6.963-4.251-2.092-8.3-4.624-12.614-6.58-2.817-1.28-5.537-2.789-8.474-3.88a46.482,46.482,0,0,1-8.03-3.94,9.664,9.664,0,0,0-5.214-1.626c1.031-3.113,3.338-5.241,5.806-7.117,11.741-8.887,22.912-18.472,34.366-27.693,7.142-5.747,14.227-11.562,21.637-17.584,1.215,5.346,2.385,10.359,3.486,15.4,1.015,4.636,1.873,9.316,2.986,13.934a2.745,2.745,0,0,1-1.068,3.113c-3.807,3.4-7.6,6.836-11.318,10.335-1.99,1.872-1.7,3.773.762,5.1,4.264,2.283,8.573,4.476,12.883,6.663q38.337,19.472,76.69,38.909a6.48,6.48,0,0,0,7.462-.953c4.131-3.434,8.138-7.015,12.124-10.615a4.928,4.928,0,0,1,3.7-1.388q24.428.569,48.858,1.018a3.231,3.231,0,0,1,2.215.5.745.745,0,0,1,.083.7c-5.155,4.655-10.631,8.931-15.955,13.382a5.59,5.59,0,0,0-2.156,2.48c-.62,1.441-2.008,2.123-3.131,3.02-10.2,8.119-20.372,16.26-30.63,24.306a18.209,18.209,0,0,0-2.968,3.22c-.858.793-1.03,2.289-2.508,2.437" transform="translate(-786.199 -534.395)" fill="#323435"/>
  <path id="Path_1144" data-name="Path 1144" d="M873.184,1279.2c1.261-.16,1.28-1.437,1.428-2.129,1.962-9.048,4.652-17.9,6.808-26.894,1.444-6.012,2.854-12.04,4.464-18.006.4-1.508-.089-3.153.864-4.516.472-2.551-.018-5.281,1.533-7.635.571-.864-.185-1.826-.083-2.76.111-.12.373-.244.37-.281-.08-.373,1.376.346.429-.608a8.422,8.422,0,0,1,1.459-5.429c.382-.179.549.281.858.312-.25-1.987,1.033-3.894.305-5.9a1.2,1.2,0,0,1,.469-1.221,5,5,0,0,0,.956-4.359,3.929,3.929,0,0,1,.636-2.872c.944-1.049,1.036-2.449,1.484-3.7.592-3.032,1.91-5.871,2.307-8.958-.077-2.04.793-3.887,1.108-5.846q6.423-25.668,12.953-51.308a31.447,31.447,0,0,1,1.145-3.982,56.237,56.237,0,0,1,1.592-6.96c.512-1.5-.774-2.57-.632-3.933a1.383,1.383,0,0,1,.626-.5c1.61-.448,1.58-1.888,1.872-3.122q3.582-15.039,7.469-30c4.988-18.436,9.375-37.019,14.051-55.531.549-2.162,1.475-4.257,1.419-6.555.083-3.542,2.372-6.414,2.971-9.813,1.16-4.233,2.092-8.517,3.236-12.753.29-1.885,1.317-3.65.916-5.645a2.92,2.92,0,0,1,.543-1.854,8.159,8.159,0,0,0,1.234-5.149,20.381,20.381,0,0,1,1.733-7.3c1.114-2,1.4-4.257,1.956-6.419q2.032-7.9,3.983-15.826a5.14,5.14,0,0,1,1.388-2.992c.858-1.888,2.706-2.647,4.267-3.72.747-.518.774.176.919.62q-6.108,24.659-12.225,49.306-22.753,91.056-45.548,182.095-14.433,57.6-28.933,115.165c-.034.151.21.376.324.568-1.271,2.156-2.289-.05-3.387-.256-1.221-.238-1.515-1.259-1.228-2.428.679-2.745,1.3-5.506,2.058-8.236.262-.941.6-1.8-.1-2.668" transform="translate(-610.435 -755.175)" fill="#dad0c6"/>
  <path id="Path_1145" data-name="Path 1145" d="M817.731,928.088q23.756,6.779,47.516,13.549c12.016,3.44,24.078,6.722,36.028,10.4,7.558,2.317,15.159,4.547,22.724,6.806,8.532,2.551,17.177,4.9,25.814,7.2,8.749,2.341,17.38,5.146,26.092,7.635,8.012,2.295,16.06,4.445,23.985,7.04,2.218.722,4.507,1.2,6.765,1.8.531.719,1.734.213,2.135,1.172l1.536.071c1.24.549,2.832.139,3.834,1.367a3.82,3.82,0,0,1-.382,1.49c-.5,1.7-.358,3.1,1.681,3.665a1.249,1.249,0,0,1,1.074,1.092c-1.067,1.351-3.159-.262-4.162,1.33a.858.858,0,0,1-1.006-.157c-16.59-4.791-33.153-9.708-49.787-14.333-6.648-1.848-13.185-4.125-19.975-5.466a4.634,4.634,0,0,1-4.245-1.456c-10.871-3.436-21.736-6.926-32.619-10.316q-41.725-13-83.459-25.941c-1.721-.537-3.415-1.16-5.118-1.752a4.224,4.224,0,0,1,1.567-5.186" transform="translate(-725.648 -790.123)" fill="#8f8e8c"/>
  <path id="Path_1146" data-name="Path 1146" d="M859.423,1040.881c.645-.518,1.12.052,1.61.293q31.614,15.178,63.209,30.4a3.278,3.278,0,0,1,.589.463c-10.134.2-20.265.5-30.4.524a10.385,10.385,0,0,0-7.253,2.807c-7.08,6.24-14.252,12.38-21.313,18.651-1.277,1.132-2.178,1.363-3.76.494q-11.018-6.044-22.205-11.772c-1.959-1-2.138-1.53-.364-2.974,7.327-5.954,14.521-12.062,21.841-18.025,1.829-1.49,2.508-2.943,1.829-5.355-1.431-5.121-2.545-10.331-3.785-15.5" transform="translate(-678.834 -555.403)" fill="#323435"/>
  <path id="Path_1147" data-name="Path 1147" d="M905,942.091c1.425.463,2.955.617,4.245,1.453-3.332,13.74-6.444,27.526-10.057,41.18-3.807,14.425-7.284,28.93-10.924,43.4q-5.544,22.035-11.081,44.1-5.752,22.933-11.47,45.879-5.835,23.451-11.615,46.921-4.276,17.278-8.524,34.563c-2.684,10.846-5.318,21.714-8.125,32.53a58.593,58.593,0,0,0-2.079,8.607c-3.159.163-4.507-1.215-3.819-3.945.6-2.388,1.172-4.791,1.863-7.163a2.314,2.314,0,0,0-.207-2.4c.185-.287.4-.308.642-.071,1.419-.678.966-2.141,1.24-3.236q6.043-23.836,11.938-47.714,9.074-36.546,18.121-73.09,8.357-33.673,16.717-67.327,6.959-28.139,13.854-56.281,4.614-18.7,9.279-37.4" transform="translate(-693.29 -760.928)" fill="#d9d0c6"/>
  <path id="Path_1148" data-name="Path 1148" d="M840.42,1164.553c2.437-3.832,6.407-5.973,9.8-8.73,8.708-7.1,17.571-14.008,26.363-21a8.592,8.592,0,0,0,.888-.919c2.379-2.751,5.479-4.667,8.209-7,3.008-2.582,6.151-5.007,9.227-7.506a1.934,1.934,0,0,0,.864-1.231,2.571,2.571,0,0,1-.114-.459c3.887-1.969,6.8-5.217,10.134-7.9,7.663-6.145,15.2-12.457,22.76-18.735,7.7-6.383,15.366-12.808,23.063-19.2,4.643-3.856,9.31-7.684,13.953-11.528.774-.651,1.8-1.132,1.8-2.372,1.253.2,1.074,1.163,1.03,2-.136,2.94-.367,5.877-.429,8.823-.022,1.413-1.089,1.9-1.913,2.573Q942.288,1090.7,918.5,1110c-21.952,17.874-43.873,35.772-65.381,54.177a10.917,10.917,0,0,1-1.255.805c-1.567-.019-3.131.65-4.726-.4-.37-.25-1.872.339-2.391,1.453-1.061,2.27-1.527,2.307-3.236.5a2.95,2.95,0,0,1-1.086-1.98" transform="translate(-674.441 -519.334)" fill="#c1c1c1"/>
  <path id="Path_1149" data-name="Path 1149" d="M912,893.694c-1.413,1.114-.352,2.558-.494,3.838a25.172,25.172,0,0,0-.025,2.857c-.154,4.655.882,4.047-4.266,5.858-12.756,4.495-25.475,9.082-38.207,13.626-.4.142-.83.207-1.24.309a1.6,1.6,0,0,1-.484-1.425c.8-2.986,1.117-6.114,2.57-8.915,6.376-3.045,12.781-6.037,19.126-9.137,7.355-3.606,14.662-7.3,22.18-11.044a9.944,9.944,0,0,1,.839,4.035" transform="translate(-618.51 -870.243)" fill="#c0c0c1"/>
  <path id="Path_1150" data-name="Path 1150" d="M810.368,914.054C814.77,924.6,820.3,934.575,826,944.5a4.548,4.548,0,0,1-2.745.75c.66-1.157-.228-2-.685-2.832-3.662-6.716-7.385-13.391-11.075-20.092-.46-.83-.818-1.706-1.216-2.564.691-1.645-.413-3.088-.549-4.631,0-.484.108-.907.639-1.073" transform="translate(-738.428 -819.382)" fill="#e1ddd0"/>
  <path id="Path_1151" data-name="Path 1151" d="M872.616,897.648c.025,2.551-.9,4.9-1.536,7.314a7.9,7.9,0,0,0-.555,3.026c-5.34-.012-5.244.87-3.64-4.936.136-.494.321-.978.481-1.471l1.182-6.074c1.144,1.114,2.813,1.246,4.069,2.141" transform="translate(-621.273 -858.05)" fill="#d9d0c6"/>
  <path id="Path_1152" data-name="Path 1152" d="M822.608,930.275c-1.169,1.533-1.286,3.381-1.567,5.186a45.413,45.413,0,0,1-7.219-2.193c-.734-2.252-.031-4.272,1.018-6.228,2.076,2.314,5.14,2.258,7.768,3.236" transform="translate(-730.525 -792.31)" fill="#989593"/>
  <path id="Path_1153" data-name="Path 1153" d="M816.93,929.17c.078,2.141-.651,4.155-1.021,6.228-3.794-.9-3.791-.9-2.909-4.683a15.833,15.833,0,0,1,1.373-4.7q1.277,1.573,2.557,3.153" transform="translate(-732.612 -794.441)" fill="#c4bcb5"/>
  <path id="Path_1154" data-name="Path 1154" d="M882.6,892.8a98.7,98.7,0,0,1-14.339,6.858c-.1-.207-.2-.423-.3-.629q6.937-3.156,13.87-6.305a.5.5,0,0,1,.768.077" transform="translate(-617.015 -864.147)" fill="#999a99"/>
  <path id="Path_1155" data-name="Path 1155" d="M873.228,895.95c-.256-.025-.512-.049-.768-.077q4.919-2.4,9.829-4.8c.1.191.185.383.281.58-3.113,1.435-6,3.319-9.341,4.3" transform="translate(-607.641 -867.295)" fill="#b4b5b4"/>
  <path id="Path_1156" data-name="Path 1156" d="M809.728,914.4c.478,1.515,1.693,2.934.549,4.634q-.268-2.309-.549-4.634" transform="translate(-738.43 -818.659)" fill="#b9b7b1"/>
  <path id="Path_1157" data-name="Path 1157" d="M834.507,1035.3l-.651.074q-1.393-.611-2.789-1.212a3.956,3.956,0,0,1,3.44,1.138" transform="translate(-693.941 -569.087)" fill="#bcbcbc"/>
  <path id="Path_1158" data-name="Path 1158" d="M880.283,889.907a2.573,2.573,0,0,1-2.456.688c1.073-.49,1.434-1.009,2.456-.688" transform="translate(-596.452 -869.932)" fill="#dedfde"/>
  <path id="Path_1159" data-name="Path 1159" d="M816.326,1043.855c-.25.709-.558,1.212-1.434,1.116.25-.709.558-1.212,1.434-1.116" transform="translate(-727.666 -548.787)" fill="#e3e3e3"/>
  <path id="Path_1160" data-name="Path 1160" d="M823.54,1037.936a1.275,1.275,0,0,1-1.388,1.163,1.262,1.262,0,0,1,1.388-1.163" transform="translate(-712.528 -561.103)" fill="#e4e4e3"/>
  <path id="Path_1161" data-name="Path 1161" d="M1063.48,1328.243c-5.346,1.018-10.43,3-15.662,4.421-24.062,6.521-48.411,11.235-73.426,11.568-12.6.169-25.059-1.071-37.182-4.927-17.17-5.467-28.884-16.47-35.041-33.48a148.715,148.715,0,0,1-7.789-36.71c-1.632-16.964-1.438-33.949-.466-50.931,1.092-19.031,3.159-37.978,6.016-56.826,8.921-58.977,21.557-117.245,33.573-175.632,1.9-9.227,4.047-18.414,6.623-27.489a6.3,6.3,0,0,1,4.22-4.627c11.5-4.547,22.893-9.362,34.325-14.076.358,9.23-.716,18.435-.571,27.662a18.361,18.361,0,0,1-.478,3.051,29.672,29.672,0,0,0-.053,8.268,15.081,15.081,0,0,1-.46,5.775,29.8,29.8,0,0,0-.071,8.249c-.043,1.956.463,3.945-.4,5.839-.737,2.274-.077,4.615-.345,6.9-.475,1.721-.025,3.5-.352,5.226a48.27,48.27,0,0,0-.123,6.087c.808,4.251,0,8.409-.747,12.565-.244,1.357-1.5,1.478-2.622,1.709-4.183.876-8.459.611-12.673.867-9.578.577-19.151,1.317-28.732,1.727a1.5,1.5,0,0,0-1.4,1.274,46.139,46.139,0,0,0-1.126,4.794,2.518,2.518,0,0,0,1.644,3.134c4.8,1.728,9.347,4.029,14.008,6.062,2.706,1.175,3.026.762,3.708-2.252.373-1.687-.161-3.733,1.69-4.936a56.462,56.462,0,0,1,7.743-.775c12.814-.281,25.6-1.169,38.391-1.724,8.212-.364,16.433-.63,24.633-1.237a5.624,5.624,0,0,1,3.035.527c-.321,2.48-.7,4.948-.941,7.435-.108,1.089-.537,1.465-1.611,1.518-4.828.287-9.643.7-14.465.966q-15.27.86-30.54,1.579c-1.552.074-1.866.694-1.866,2.058,0,6.145-.4,12.278-.6,18.423-.306,9.5-.842,19-.978,28.513a15.294,15.294,0,0,1-.466,2.542,25.557,25.557,0,0,0-.065,7.758c-.071,1.586.469,3.22-.429,4.727a34.256,34.256,0,0,0-.089,9.316c-.049,1.6.423,3.261-.426,4.794-.534-.645-.167-1.45-.339-2.295.089,2.317-.028,4.5.074,6.676.885,2.61.506,5.3.373,7.956-.089,1.719-.435,3.421-.429,5.155.012,1.873-.91,2.82-2.776,3.054-6.08.75-12.207.942-18.3,1.524-6.435.608-12.917.722-19.305,1.681-2.468,2.076-1.823,5.044-2.15,7.706-.074.6.558,1.08,1.148,1.29,5.1,1.74,9.653,4.683,14.628,6.676,2.665,1.061,2.98.814,3.474-2.1.324-1.909.114-3.995,1.635-5.562,4.828-1.228,9.791-.9,14.69-1.274,2.736-.216,5.479-.882,8.255-.438,1.218.317,2.434.663,3.662.025a8.632,8.632,0,0,1,4.945-.46,4.414,4.414,0,0,0,3.452-.064,6.757,6.757,0,0,1,4.066-.435c2.073.459,4.2.376,5.8.768a1.11,1.11,0,0,1-1.2-.435c.99-1.62,2.517-.947,3.893-.916a9.658,9.658,0,0,0,3.492.41c.256-.013,1.027,1.1.978-.244.87-1.024,2-.768,3.1-.639,2.252.512,4.578.305,6.312.753.876-.055.564-.626.6-.281.012.077-.034.1-.1.135a1.318,1.318,0,0,1-1.62-.213c.672-1.462,1.931-.99,3.063-.95,2.418.543,4.93.348,7.354.906-.66-.314-1.61.3-2.067-.654,1.369-1.4,2.807-1.145,4.272-.179,1.555,2.508-.192,4.951-.2,7.431-.012,1.58-.743,2.32-2.668,2.6-4.309.633-8.631.383-12.929.7-10,.728-20.046.87-30.072,1.212-7.284.25-7.469.448-7.719,7.676-.339,9.859-.577,19.718-1.145,29.553-.629,11.139-1.24,22.267-1.555,33.413-.058,1.974-.481,3.933-.466,5.935a2.543,2.543,0,0,0,1.074,2.434,109.837,109.837,0,0,1-.935,17.522c-.185,1.5-1.33,1.854-2.6,2.057-4.1.66-8.249.673-12.373,1.024-6.614.568-13.256.818-19.86,1.515a3.871,3.871,0,0,0-.75.173c-2.265,1.977-1.848,4.9-2.474,7.419-.262,1.046.919,1.57,1.783,1.968,4.8,2.187,9.733,4.066,14.413,6.521,1.691.889,2.508.589,2.992-1.478.469-2.021.213-4.384,2.073-5.957,3.85-1.339,7.9-.922,11.843-1.2,13.626-.947,27.246-1.971,40.884-2.813,5.6-.345,11.216-.734,16.812-1.221,1.12-.09,2.2.55,3.3.043,1.067.271.962.941.74,1.811-.638,2.5-1.184,5.031-1.771,7.551-.749.633-1.817-.2-2.551.543-.972.805-2.116.392-3.193.436a9.4,9.4,0,0,0-4.639.046,5.311,5.311,0,0,1-2.508.518c-6.79.336-13.583.688-20.832,1.049,3.227,2.69,6.564,4.436,9.73,6.426q21.822,13.724,43.694,27.372a6.245,6.245,0,0,1,1.144,1.018,4.527,4.527,0,0,0,5.488,1.312c4.859-1.777,9.89-3.07,14.8-4.708,1.836-.614,2.169-.084,2.122,1.656-.108,3.717-.043,7.438-.043,11.158" transform="translate(-564.469 -766.264)" fill="#c0c0c1"/>
  <path id="Path_1162" data-name="Path 1162" d="M997.186,1064.6c-1.37,1.138-3.082.774-4.618.876-18.759,1.342-37.528,2.576-56.29,3.868-4.149.287-8.286.685-12.429,1.031-.793.524-1.512.126-2.193-.213-5.333-2.653-10.5-5.614-15.859-8.209a1.882,1.882,0,0,1-1.061-1.083c4.125-1.431,8.465-.957,12.691-1.379,7.03-.715,14.1-1.138,21.159-1.536,1.6-.1,1.977-.6,2.036-2.116.2-5,.568-9.989.9-14.981.043-.635-.293-1.428.556-1.829q27.556,12.794,55.108,25.571" transform="translate(-540.352 -558.813)" fill="#cfd1d2"/>
  <path id="Path_1163" data-name="Path 1163" d="M956.285,1028.151a14.086,14.086,0,0,0-5.226.447,5.1,5.1,0,0,1-3.094.083q-10.176.6-20.339,1.206c-1.191.071-2.394.1-3.594.136-1.678.222-2.974-.839-4.356-1.459-4.578-2.045-9.088-4.263-13.672-6.3a1.77,1.77,0,0,1-1.092-1.046c3.868-1.388,7.959-.981,11.944-1.37,8.844-.845,17.708-1.465,26.576-2.039,1.635-.108,1.956-.667,1.987-2.15.077-4.489.321-8.977.506-13.459.059-.389.2-.411.4-.077q16.779,7.482,33.548,14.956c5.849,2.591,11.714,5.136,17.565,7.712a2.947,2.947,0,0,1,.429.268c-.161.154-.321.3-.481.463a11.02,11.02,0,0,0-4.362.358c-1.641.657-3.323.377-4.995.2a6.786,6.786,0,0,0-3.31.345,10.83,10.83,0,0,1-5.019.185,6.1,6.1,0,0,0-3.242.37,7.317,7.317,0,0,1-4.041.13,10.511,10.511,0,0,0-4.337.37c-1.49.639-3,.305-4.519.161a10.241,10.241,0,0,0-4.177.435,4.96,4.96,0,0,1-3.1.077" transform="translate(-539.981 -636.254)" fill="#cfd1d2"/>
  <path id="Path_1164" data-name="Path 1164" d="M998.164,986.377c-9.15.506-18.3,1.055-27.446,1.515q-21.628,1.1-43.269,2.092c-1.209.059-2.419.019-3.628.025-2.422-.148-4.353-1.61-6.482-2.511-3.588-1.506-6.932-3.563-10.566-5a2.316,2.316,0,0,1-1.515-1.33c2.264-.922,4.7-.713,7.058-.876q17.431-1.152,34.89-2.055c1.641-.083,2.16-.531,2.243-2.181.191-3.785.635-7.564.978-11.349.071-.321.207-.333.392-.065,12.654,5.7,25.321,11.371,37.944,17.14,3.171,1.45,6.592,2.4,9.4,4.6" transform="translate(-539.259 -714.309)" fill="#cfd1d2"/>
  <path id="Path_1165" data-name="Path 1165" d="M941.049,944.9q-14.794.222-29.6.466,3.984-3.142,7.974-6.284,2.3-1.814,4.59-3.634l.45-.018c3.4-.216,6.8-.062,10.205-.089a11.487,11.487,0,0,0,3.273-.423c3.486-.49,6.95.352,10.424.278.339-.167.012-.648.12-.321.034.12-.012.185-.145.216a4.717,4.717,0,0,1-3.193-.139c.469-1.413,1.721-1.157,2.752-1.222a18.309,18.309,0,0,1,4.309.154c3.477.959,7.123-.207,9.974.811.972.043.66-.417.679-.071.006.089-.071.136-.219.12-.485-.062-1.046.117-1.379-.435,1.82-1.943,4.072-.907,6.176-.932,4,.842,8.1-.065,12.1.824.345-.262-.136-.626.037-.327.077.129.034.213-.127.225-.882.059-1.811.506-2.557-.376,2.6-1.771,5.25-1.5,7.928-.191a2.106,2.106,0,0,1,1.459,2.8c-.1.5-.262.993-.358,1.505-.315,1.752.793,4.31-.607,5.133-1.675.99-4.146.728-6.281.833-4.726.247-9.458.126-14.2.441-7.9.53-15.85.472-23.778.657" transform="translate(-526.36 -780.984)" fill="#c0c0c1"/>
  <path id="Path_1166" data-name="Path 1166" d="M944.14,944.543a27.184,27.184,0,0,0-7.435.358c-2.292.737-4.655.136-6.972.333a15.149,15.149,0,0,1-2.307.256c-2.289.12-4.6-.225-6.879.225-1.684-.077-3.4.336-5.059-.225l.1-.071c3.921-2.9,7.851-5.787,11.747-8.721,1.354-1.011,3.088-.077,4.436-.984a16.575,16.575,0,0,1,1.971-3.736c2.545-1.252,4.386-3.7,7.308-4.291q18.4,7.644,36.818,15.3c-.441.657-1.021.352-1.474.515a32.127,32.127,0,0,0-7.975.345c-3.051.648-6.12.346-9.19.173a21.018,21.018,0,0,0-6.395.358c-2.884.654-5.787.327-8.69.161" transform="translate(-517.935 -790.959)" fill="#323435"/>
  <path id="Path_1167" data-name="Path 1167" d="M919.926,966.149c.071-1.758-.4-3.569.487-5.244.139-.232.287-.225.447-.018-.052,1.931.426,3.9-.416,5.781-.321-.022-.321-.367-.518-.518" transform="translate(-508.813 -722.067)" fill="#acacab"/>
  <path id="Path_1168" data-name="Path 1168" d="M918.9,1005.35a17.5,17.5,0,0,1,.1-9.31q-.056,4.655-.1,9.31" transform="translate(-512.041 -648.451)" fill="#aeaeae"/>
  <path id="Path_1169" data-name="Path 1169" d="M920.488,966.4l-.447.018v-8.326c.8.4.315,1.126.568,1.6q-.065,3.35-.12,6.7" transform="translate(-508.441 -727.576)" fill="#9c9c9b"/>
  <path id="Path_1170" data-name="Path 1170" d="M920.724,962.289a14.936,14.936,0,0,1,.071-8.249q-.037,4.128-.071,8.249" transform="translate(-508.154 -736.016)" fill="#a3a3a3"/>
  <path id="Path_1171" data-name="Path 1171" d="M920.906,957.755a14.886,14.886,0,0,1,.049-8.267q-.028,4.132-.049,8.267" transform="translate(-507.806 -745.506)" fill="#afafb0"/>
  <path id="Path_1172" data-name="Path 1172" d="M919.066,999.757a12.655,12.655,0,0,1,.059-7.768c-.019,2.594-.04,5.173-.059,7.768" transform="translate(-511.686 -656.897)" fill="#b1b2b1"/>
  <path id="Path_1173" data-name="Path 1173" d="M918.609,1007.117a2.838,2.838,0,0,1-.4.086v-7.709c.753,1.3.25,2.422.49,3.452Z" transform="translate(-512.262 -641.25)" fill="#aeaeae"/>
  <path id="Path_1174" data-name="Path 1174" d="M919.883,962.487l.518.518-.071,5.729a.731.731,0,0,1-.395.071q-.023-3.155-.052-6.318" transform="translate(-508.77 -718.405)" fill="#949493"/>
  <path id="Path_1175" data-name="Path 1175" d="M931.005,1051.112a4.8,4.8,0,0,1,4.637-.053l-4.637.053" transform="translate(-485.582 -534.931)" fill="#b2b2b2"/>
  <path id="Path_1176" data-name="Path 1176" d="M933.544,1050.947c.654-1.107,1.709-.327,2.551-.546-.685.965-1.7.364-2.551.546" transform="translate(-480.288 -535.25)" fill="#ababab"/>
  <path id="Path_1177" data-name="Path 1177" d="M910.623,927.427c9.18-4.673,18.506-9.048,27.573-13.959,4.177-2.273,8.56-4.155,12.833-6.253,1.179-.574,1.95-.466,1.638,1.006-.762,3.613-.284,7.25-.454,10.877-.1,2.1-.648,3.6-2.992,4.436-13.428,4.772-26.8,9.727-40.19,14.613a6.583,6.583,0,0,1-1.005.2c-.478-1.573.111-3.069.456-4.541a38.279,38.279,0,0,0,1.175-5.263c.049-.506-.025-1.329.966-1.114" transform="translate(-533.866 -834.313)" fill="#c0c0c1"/>
  <path id="Path_1178" data-name="Path 1178" d="M846.559,940.044a1.044,1.044,0,0,1-1.092-.37c-1.108-3.039-2.206-6.089-1.533-9.427q9.111-3.258,18.216-6.509,14.942-5.372,29.862-10.766c2.378-.864,3-.537,3.458,2.057a20.04,20.04,0,0,0,.558,3.548c.953,2.567-.537,3.224-2.527,3.927-13.166,4.618-26.32,9.316-39.468,14-1.872.67-3.726,1.367-5.593,2.045-.8.287-1.734.395-1.882,1.5" transform="translate(-667.546 -822.532)" fill="#e9e9ea"/>
  <path id="Path_1179" data-name="Path 1179" d="M877.038,918.8c1.944-1.727,4.541-1.968,6.83-2.795,13.12-4.763,26.314-9.316,39.5-13.9,1.169-.4,2.249-1.866,3.511-1.067,1.246.781.429,2.415.663,3.656.972,5.195.922,5.118-4.436,7.021-6.67,2.354-13.274,4.887-19.925,7.3-7.111,2.579-14.221,5.155-21.384,7.6-1.444.487-2.635,1.7-4.3,1.542.358-2.1-.256-4.106-.589-6.145-.173-1.058-.793-2.181.135-3.212" transform="translate(-599.137 -847.013)" fill="#e9e9ea"/>
  <path id="Path_1180" data-name="Path 1180" d="M909.313,902.955c8.286-2.955,16.56-5.929,24.855-8.85A29.547,29.547,0,0,0,940,891.529a1.261,1.261,0,0,1,1.626-.053c.855.9.247,2.234.96,3.171a2.816,2.816,0,0,0,.049,2.551c.16.185.327.367.481.552a1.907,1.907,0,0,0,.2,2.338c.327.148.549.346.358.744-2.052-.077-3.822.907-5.651,1.567-7.879,2.851-15.711,5.868-23.726,8.336-1.228.379-2.07,1.613-3.5,1.505a12.364,12.364,0,0,1-1.5-9.286" transform="translate(-531.544 -867.019)" fill="#e9e9ea"/>
  <path id="Path_1181" data-name="Path 1181" d="M927.121,895.014q.754,4.651,1.5,9.292c-8.588,1.808-16.223-2.462-24.312-3.844a9.254,9.254,0,0,1-3.886-1.58q13.349-1.929,26.7-3.868" transform="translate(-549.352 -859.078)" fill="#bcbab9"/>
  <path id="Path_1182" data-name="Path 1182" d="M894.9,906.816c.417,2.252.716,4.535,1.293,6.74a2.092,2.092,0,0,1-.839,2.616c-5.062.472-9.68-1.568-14.4-2.764-4.149-1.043-8.542-.756-12.975-2.857,8.366-1.293,16.331-2.521,24.294-3.748a3.484,3.484,0,0,1,2.6-.006Z" transform="translate(-616.994 -835.031)" fill="#bdbab9"/>
  <path id="Path_1183" data-name="Path 1183" d="M857.891,918.282c.537,3.137,1.573,6.2,1.53,9.43l-9.869-2.557c-4.137-.416-8.036-1.823-12.012-2.915a.74.74,0,0,1-.506-.808c6.932-1.182,13.857-2.4,20.857-3.15" transform="translate(-681.501 -810.567)" fill="#bcbbb9"/>
  <path id="Path_1184" data-name="Path 1184" d="M896.169,904.837c-2.853,1.376-5.716.62-8.428,1.179-2.771.574-5.658.6-8.487.947-1.079.133-1.5-.124-1.169-1.234a3.67,3.67,0,0,0,.083-.512c.812-5.219.805-5.208,5.877-3.766,3.964,1.12,7.934,2.218,12.124,3.387" transform="translate(-596.145 -847.381)" fill="#8f8e8d"/>
  <path id="Path_1185" data-name="Path 1185" d="M861.591,916.763q-7.154.824-14.3,1.635c-.256.028-.651.117-.759-.012-1.262-1.468.2-2.857.216-4.3.006-.586-.139-2,1.382-1.573q6.788,1.911,13.571,3.813c-.034.145-.071.3-.1.441" transform="translate(-662.776 -822.766)" fill="#8f8e8d"/>
  <path id="Path_1186" data-name="Path 1186" d="M913.094,914.464q-1.3,5.46-2.6,10.917c-1.027-.768-2.027-1.586-3.094-2.3-.913-.614-.817-1.388-.583-2.27.525-2,1.144-3.98,1.49-6,.283-1.675.959-2.076,2.443-1.36.762.377,1.561.679,2.341,1.015" transform="translate(-536.338 -821.35)" fill="#d9d1c7"/>
  <path id="Path_1187" data-name="Path 1187" d="M838.62,919.4q6.261,1.86,12.519,3.726a1.684,1.684,0,0,1-1.693.364c-4.143-1.009-8.28-2.064-12.423-3.094-.876-.216-1.012-.571-.25-1.132.614.04,1.228.09,1.848.136" transform="translate(-683.084 -808.53)" fill="#2e3030"/>
  <path id="Path_1188" data-name="Path 1188" d="M924.89,891.974c-3.113-.429-6.253-.531-9.393-.722,3.116.1,6.268-.966,9.338.315.167.068.235.157.192.25s-.089.157-.136.157" transform="translate(-517.916 -867.591)" fill="#d8d9d8"/>
  <path id="Path_1189" data-name="Path 1189" d="M920.678,895.03c-.179-.167-.364-.339-.543-.512a.309.309,0,0,1-.123-.358c.04-.111.083-.173.13-.173a25.7,25.7,0,0,1,5.2,1.573c.167.1.225.21.173.318s-.114.154-.167.154c-1.555-.339-3.119-.667-4.674-1" transform="translate(-508.544 -861.219)" fill="#a5a5a4"/>
  <path id="Path_1190" data-name="Path 1190" d="M928.089,896.954q-1.823-.537-3.64-1.07c-.068-.509.1-.728.636-.525a8.728,8.728,0,0,1,3.566,1.058c-.043.336-.37.364-.562.537" transform="translate(-499.281 -858.516)" fill="#818282"/>
  <path id="Path_1191" data-name="Path 1191" d="M930.715,897.51a6.416,6.416,0,0,1-3.674-1.012.294.294,0,0,1-.111-.333c.04-.1.083-.158.123-.158a6.334,6.334,0,0,1,3.637,1.086c.136.077.185.173.148.274s-.083.142-.123.142" transform="translate(-494.115 -857.006)" fill="#525354"/>
  <path id="Path_1192" data-name="Path 1192" d="M928.162,896.79a.953.953,0,0,0-.025-.416,7.432,7.432,0,0,1,3.819.941l-1.184.484c-.888-.287-1.931-.173-2.61-1.009" transform="translate(-491.561 -856.285)" fill="#414344"/>
  <path id="Path_1193" data-name="Path 1193" d="M927.321,895.971l-.639.525c-1.049-.352-2.1-.7-3.152-1.049-.151-.1-.2-.2-.151-.308s.1-.148.157-.148a8.663,8.663,0,0,1,3.785.981" transform="translate(-501.518 -859.128)" fill="#8d8e8d"/>
  <path id="Path_1194" data-name="Path 1194" d="M928.7,896.455c-.006.163-.012.33-.006.49l-2.57-.626c-.031-.5.191-.645.639-.429a3.056,3.056,0,0,1,1.937.564" transform="translate(-495.762 -857.453)" fill="#4c4d4f"/>
  <path id="Path_1195" data-name="Path 1195" d="M918.578,891.611c-.019-.133-.037-.275-.055-.407,1.061.126,2.243-.543,3.165.484-.537.019-1.08.034-1.62.046-.5-.034-1-.077-1.49-.124" transform="translate(-511.605 -867.228)" fill="#b6b7b6"/>
  <path id="Path_1196" data-name="Path 1196" d="M924.807,895.327c0,.154-.006.309-.006.457-.626-.2-1.252-.4-2.051-.666a1.542,1.542,0,0,1,2.057.21" transform="translate(-502.793 -859.466)" fill="#909190"/>
  <path id="Path_1197" data-name="Path 1197" d="M921.733,894.974c-.006-.155-.006-.315-.006-.472a1.939,1.939,0,0,1,1.872.676c-.7.518-1.246-.256-1.866-.2" transform="translate(-504.925 -860.161)" fill="#9c9b9c"/>
  <path id="Path_1198" data-name="Path 1198" d="M920.436,895.366c0,.173,0,.358-.006.531a1.728,1.728,0,0,1-.012-2.57l.019,2.039" transform="translate(-508.836 -862.595)" fill="#cececd"/>
  <path id="Path_1199" data-name="Path 1199" d="M920.281,894.872a1.7,1.7,0,0,1-.04-2.551Z" transform="translate(-509.189 -864.693)" fill="#cececf"/>
  <path id="Path_1200" data-name="Path 1200" d="M927.815,896.188c-.216.138-.426.287-.639.426-.518-.139-1.036-.287-1.558-.426.185-.179.376-.358.561-.537l1.635.537" transform="translate(-496.811 -857.75)" fill="#505252"/>
  <path id="Path_1201" data-name="Path 1201" d="M878.452,907c-.87.006-1.74.006-2.6.006a1.825,1.825,0,0,1,2.6-.006" transform="translate(-600.578 -835.229)" fill="#e9e9ea"/>
  <path id="Path_1202" data-name="Path 1202" d="M802.5,1072.616c.364,12.361.768,24.728,1.024,37.1a3.518,3.518,0,0,0,2.428,3.625c9.671,4.572,19.274,9.292,28.9,13.965q-19.587,8.547-39.169,17.093c-1.181.521-2.385,1-3.585,1.493a2.111,2.111,0,0,1-2.234-2.3c-.012-.345-.049-.691-.049-1.039-.173-21.551-.808-43.1-.571-64.644.059-.345.148-.746.459-.895,4.1-1.937,8.181-3.958,12.8-4.405" transform="translate(-781.246 -488.799)" fill="#c1c1c1"/>
  <path id="Path_1203" data-name="Path 1203" d="M832.639,1136.075c-.018,1.567-.043,3.122-.065,4.69-1.956,1.706-3.029,1.468-4.609-1.043q-.25-10.717-.506-21.44c.87-.768.423-1.78.435-2.668.065-7.225.077-14.45.108-21.677,1.709-.864,2.61.015,3.091,1.536a10.917,10.917,0,0,1,.234,3.356c.006,10.908-.012,21.81.021,32.715.006,1.6-.3,3.356,1.29,4.531" transform="translate(-701.463 -445.058)" fill="#beb5b0"/>
  <path id="Path_1204" data-name="Path 1204" d="M831.978,1109.615q-.028,5.715-.049,11.433c-.731-1.484-.154-3.486-2.018-4.387a15.831,15.831,0,0,1-1.027,7.083c-.2.565-.435.885-1,.966q-.037-3.1-.074-6.2c-.117-2.807-.3-5.632,1.635-8.02.654-.805,1.3-1.706,2.533-.873" transform="translate(-700.868 -412.354)" fill="#bab6b2"/>
  <path id="Path_1205" data-name="Path 1205" d="M832.3,1111.146c-2.6.466-2.9,2.73-3.492,4.655a28.385,28.385,0,0,0-.675,4.238c-1-3.8-.29-7.659-.441-11.491,1.342,1.2,2.724,2.246,4.609,1.043Z" transform="translate(-701.192 -413.885)" fill="#c2beb9"/>
  <path id="Path_1206" data-name="Path 1206" d="M842.857,1093.444c.858,1.15,1.712,2.307,2.57,3.458.352-.114.7-.228,1.049-.345-1.08-3.394,2.138-2.934,3.248-4.365.136-.173.608-.16.558.108-.494,2.545,1.438.645,2.1,1.1.475.327,1.357-.1,1.913.475-1.509,1.317-3,2.665-4.541,3.939a4.222,4.222,0,0,0-1.777,3.464q-.421,13,.006,25.987a18.608,18.608,0,0,0,.111,2.783,5.039,5.039,0,0,1-2.465,5.639c-1.7-.167-1.419-1.555-1.413-2.564.13-10.9-.435-21.807.3-32.7a1.029,1.029,0,0,0-.129-.58,29.189,29.189,0,0,0-.21,5.42q-.028,14.15-.006,28.31c0,1.3.108,2.616-.716,3.755-1.114,1.009-2.11,2.2-3.723,2.446.111-13.172.16-26.339-.478-39.5.525-1.382,1.049-2.758,1.567-4.14l2.039-2.684" transform="translate(-676.878 -448.225)" fill="#c2c2c4"/>
  <path id="Path_1207" data-name="Path 1207" d="M832.272,1136.873c-2.085.327-2.147-.947-2.147-2.517.037-12.216-.006-24.429.056-36.648.006-1.907-.466-3.036-2.545-2.974,0-.179,0-.352.006-.531a4.284,4.284,0,0,1,2.6-.99c1.514.448,3.184-.466,4.636.518-1.734.657-2.162,1.848-2.169,3.739-.037,13.13.2,26.271-.435,39.4" transform="translate(-701.096 -445.856)" fill="#b7b2ab"/>
  <path id="Path_1208" data-name="Path 1208" d="M834.585,1097.495c-1.561.025-3.14.969-4.689-.071-.759-.435-2.224.114-2.116-1.524,4.017-1.45,8.033-2.884,12.043-4.34,2.027-.734,2.928,1.389,4.52,1.765-1.253,1.771-3.4,1.728-5.142,2.507-1.484.664-3.07,1.117-4.615,1.663" transform="translate(-700.806 -449.623)" fill="#f5f5f4"/>
  <path id="Path_1209" data-name="Path 1209" d="M828.175,1092.864c.7.506,1.407,1.012,2.11,1.524a3.993,3.993,0,0,1-2.545.543c.068-.7-.614-1.567.435-2.067" transform="translate(-701.201 -446.584)" fill="#beb5b0"/>
  <path id="Path_1210" data-name="Path 1210" d="M899.953,957.534a8.04,8.04,0,0,1,1.036-.167c.466-.034.932-.083,1.391-.136-.4.059-.382.059.059-.012a1.542,1.542,0,0,0,.161-.031c.114-.034.219-.083.333-.117a4.987,4.987,0,0,1,1.644-.229c.58-.111,1.145-.237,1.712-.37a6.244,6.244,0,0,1,2.986-.713l.043,0a6.538,6.538,0,0,1,.987-.1,2.16,2.16,0,0,1,.133-.269,1.215,1.215,0,0,1-.466-1.132,4.1,4.1,0,0,1,.978-2.622c.793-1,.269-1.564-.663-1.98q-4.211-.277-8.422-.543a11.214,11.214,0,0,1-3.89.09c-.345-.028-.1-.136.238-.059.037.013.1-.12.148-.185a2.481,2.481,0,0,0-2.221-.37c-1.558.228-3.119.506-4.621-.237-.833-.346-1.854.327-2.6-.478l-6.259-1.413c-.466.3-1.138-.111-1.53.441-1.4,1.061-1.046,2.576-1.034,4,.019,2.039,2.493.768,2.993,2.156-1.1.663-3.267-1.876-3.535,1.213.132,1.237,1.2,1.082,1.962,1.222a101.867,101.867,0,0,0,18.238,2.03c.074,0,.132.013.2.013" transform="translate(-592.847 -751.821)" fill="#8b8a89"/>
  <path id="Path_1211" data-name="Path 1211" d="M902.413,951.809c-1.579,2.079-4.35,2.11-6.238,3.64-1.157.493-1.916.41-1.515-1.12q.805-3.04,1.536-6.1,2.855-1.546,5.722-3.1c.281.709,1.367,1.166.561,2.205-1.126,1.447-.37,2.98-.068,4.477" transform="translate(-561.582 -754.598)" fill="#989898"/>
  <path id="Path_1212" data-name="Path 1212" d="M940.049,922.106q9.111-6.8,18.213-13.595a.839.839,0,0,1,.509.472c-6.207,4.584-12.09,9.613-18.7,13.635-.145-.111-.2-.219-.158-.339s.089-.173.139-.173" transform="translate(-467.043 -830.939)" fill="#d4d3d3"/>
  <path id="Path_1213" data-name="Path 1213" d="M948.727,912.918c0,.166.006.339.019.509a70.937,70.937,0,0,1-12.435,9.285.355.355,0,0,1-.577-.006q6.5-4.9,12.993-9.788" transform="translate(-475.722 -821.75)" fill="#cecece"/>
  <path id="Path_1214" data-name="Path 1214" d="M924.122,929.077c-.077.888-.651,1.644-.488,2.628.188,1.1-.7,1.12-1.487,1.11-.614-.234-1.357.124-2.049-.561,1.1-1.366,2.73-2.073,4.023-3.177" transform="translate(-508.319 -788.061)" fill="#b3b3b3"/>
  <path id="Path_1215" data-name="Path 1215" d="M947.008,910.079q2.379-1.8,4.757-3.6a.6.6,0,0,1,.524.509c-1.444,1.157-2.755,2.5-4.541,3.159a.472.472,0,0,1-.74-.068" transform="translate(-452.217 -835.175)" fill="#d0cfcf"/>
  <path id="Path_1216" data-name="Path 1216" d="M949.074,909.075l-.524-.506q2.078-1.546,4.156-3.091.43.31.037.648a14.408,14.408,0,0,1-3.668,2.949" transform="translate(-449.002 -837.262)" fill="#d6d6d5"/>
  <path id="Path_1217" data-name="Path 1217" d="M949.42,907.646c.244.019.491.043.74.068a20.624,20.624,0,0,1-3.81,3.069q-.25-.231-.5-.472c1.191-.888,2.379-1.783,3.569-2.665" transform="translate(-454.63 -832.742)" fill="#dbdbdb"/>
  <path id="Path_1218" data-name="Path 1218" d="M950.387,906.465c.888-.66,1.777-1.336,2.659-2a.762.762,0,0,1,.5.453q-1.319,1-2.635,2a.849.849,0,0,1-.527-.46" transform="translate(-445.173 -839.366)" fill="#d8d8d8"/>
  <path id="Path_1219" data-name="Path 1219" d="M933.7,918.958c.87-.667,1.74-1.342,2.613-2,.29.173.3.376.04.589a6,6,0,0,1-2.156,1.891.88.88,0,0,1-.5-.478" transform="translate(-479.959 -813.332)" fill="#c6c5c5"/>
  <path id="Path_1220" data-name="Path 1220" d="M931.679,920.477c.87-.666,1.74-1.342,2.61-2,.293.173.3.37.031.577a5.674,5.674,0,0,1-2.147,1.9.884.884,0,0,1-.494-.478" transform="translate(-484.177 -810.165)" fill="#c3c3c3"/>
  <path id="Path_1221" data-name="Path 1221" d="M932.554,920.088c-.012-.191-.021-.382-.028-.58l2.092-1.53a.629.629,0,0,1,.487.4,6.361,6.361,0,0,1-2.551,1.706" transform="translate(-482.411 -811.201)" fill="#cdcdcd"/>
  <path id="Path_1222" data-name="Path 1222" d="M927.627,923.515l2.616-2.008c.2.114.256.225.2.351s-.12.179-.185.179a2.525,2.525,0,0,1-2.057,1.49.338.338,0,0,1-.577-.012" transform="translate(-492.625 -803.843)" fill="#c2c1c1"/>
  <path id="Path_1223" data-name="Path 1223" d="M924.983,925.493a7.023,7.023,0,0,1,2.456-1.959c.185.111.243.225.185.345s-.12.179-.179.179c-.583.889-1.221,1.669-2.462,1.435" transform="translate(-498.137 -799.617)" fill="#c2c2c2"/>
  <path id="Path_1224" data-name="Path 1224" d="M921.546,928.035c.87-.648,1.737-1.3,2.607-1.962a2.086,2.086,0,0,1-1.993,1.986.366.366,0,0,1-.614-.025" transform="translate(-505.303 -794.324)" fill="silver"/>
  <path id="Path_1225" data-name="Path 1225" d="M920.193,929.069c.885-.66,1.774-1.333,2.662-2,.185.114.243.222.185.327s-.124.163-.191.163a2.652,2.652,0,0,1-2,1.555.383.383,0,0,1-.654-.049" transform="translate(-508.124 -792.239)" fill="#bfbebf"/>
  <path id="Path_1226" data-name="Path 1226" d="M926.277,924.514l2.628-1.99c.185.114.244.219.185.333s-.127.166-.185.166a2.5,2.5,0,0,1-2.008,1.515.384.384,0,0,1-.62-.025" transform="translate(-495.439 -801.723)" fill="#c1c1c1"/>
  <path id="Path_1227" data-name="Path 1227" d="M899.637,944.063c.682-.475,1.354-.953,2.033-1.434-.281,1.042-.608,2.014-2.033,1.434" transform="translate(-550.98 -759.806)" fill="#adadad"/>
  <path id="Path_1228" data-name="Path 1228" d="M905.037,940.025c.672-.484,1.345-.96,2.021-1.444-.256,1.073-.608,2-2.021,1.444" transform="translate(-539.722 -768.246)" fill="#afafb0"/>
  <path id="Path_1229" data-name="Path 1229" d="M921.45,927.72c.219.019.435.031.654.049-.651.823-1.252,1.715-2.514,1.478a4.248,4.248,0,0,1,1.86-1.527" transform="translate(-509.381 -790.89)" fill="#c4c4c4"/>
  <path id="Path_1230" data-name="Path 1230" d="M928.492,923.053l-.016-.53,2.024-1.5c-.04,1.3-.959,1.727-2.008,2.033" transform="translate(-490.854 -804.859)" fill="#cbcaca"/>
  <path id="Path_1231" data-name="Path 1231" d="M929.93,921.509c.672-.5,1.348-1,2.021-1.5-.031,1.305-.972,1.709-2,2.03-.151-.111-.2-.225-.157-.352s.089-.182.139-.182" transform="translate(-488.147 -806.958)" fill="#cccbcb"/>
  <path id="Path_1232" data-name="Path 1232" d="M934.591,918.581c-.012-.2-.025-.389-.043-.592l2.085-1.53c.179.114.241.225.185.339s-.111.179-.173.179a3.285,3.285,0,0,1-2.054,1.6" transform="translate(-478.195 -814.368)" fill="#cecdcd"/>
  <path id="Path_1233" data-name="Path 1233" d="M915.81,932.158a2.541,2.541,0,0,1,2.1-1.579,2.129,2.129,0,0,1-2.1,1.579" transform="translate(-517.262 -784.932)" fill="#c4c3c3"/>
  <path id="Path_1234" data-name="Path 1234" d="M927.318,923.169c.2.006.41.018.62.025a3.331,3.331,0,0,1-2.153,1.623c0-.173-.006-.346-.006-.524.512-.37,1.024-.753,1.539-1.123" transform="translate(-496.48 -800.378)" fill="#d1d1d0"/>
  <path id="Path_1235" data-name="Path 1235" d="M911.085,935.839c.345-1.018,1.317-1.305,2.116-1.79-.364,1-.876,1.826-2.116,1.79" transform="translate(-527.113 -777.693)" fill="#bebebe"/>
  <path id="Path_1236" data-name="Path 1236" d="M909.089,936.964c.676-.466,1.348-.929,2.018-1.4-.407.839-.527,2.11-2.018,1.4" transform="translate(-531.274 -774.538)" fill="silver"/>
  <path id="Path_1237" data-name="Path 1237" d="M927.128,923.785q.01-.25,0-.5c.515-.37,1.027-.75,1.539-1.126.191.006.382.006.571.013a2.883,2.883,0,0,1-2.11,1.613" transform="translate(-493.665 -802.484)" fill="#d1d1d0"/>
  <path id="Path_1238" data-name="Path 1238" d="M930.594,920.923a4.15,4.15,0,0,1,1.8-1.432.693.693,0,0,1,.5.426,2.51,2.51,0,0,1-2.3,1.005" transform="translate(-486.439 -808.044)" fill="#c8c7c7"/>
  <path id="Path_1239" data-name="Path 1239" d="M922.519,926.853c.562-.426,1.12-.854,1.681-1.283-.222.876-.281,1.95-1.681,1.283" transform="translate(-503.274 -795.375)" fill="#c3c3c3"/>
  <path id="Path_1240" data-name="Path 1240" d="M931.677,920.687c-.167-.145-.333-.287-.5-.423.509-.382,1.027-.759,1.54-1.141.161.164.327.324.494.478Z" transform="translate(-485.217 -808.814)" fill="#d6d6d6"/>
  <path id="Path_1241" data-name="Path 1241" d="M915.136,932.664a2.5,2.5,0,0,1,2.1-1.579,2.2,2.2,0,0,1-2.1,1.579" transform="translate(-518.667 -783.877)" fill="#c3c2c3"/>
  <path id="Path_1242" data-name="Path 1242" d="M933.695,919.16c-.164-.133-.33-.275-.49-.4.512-.389,1.027-.765,1.539-1.151.167.16.327.321.494.475-.518.364-1.03.722-1.542,1.08" transform="translate(-480.997 -811.979)" fill="#dad9d9"/>
  <path id="Path_1243" data-name="Path 1243" d="M914.4,933.163c.632-.715,1.216-1.521,2.3-1.573a2.209,2.209,0,0,1-2.3,1.573" transform="translate(-520.208 -782.822)" fill="#c4c4c4"/>
  <path id="Path_1244" data-name="Path 1244" d="M913.049,934.17a3.3,3.3,0,0,1,2.307-1.567c-.518.895-1.092,1.706-2.307,1.567" transform="translate(-523.018 -780.709)" fill="#c1c1c1"/>
  <path id="Path_1245" data-name="Path 1245" d="M921.054,928.324c.006-.161.006-.327.006-.491.5-.373,1.006-.743,1.515-1.126.2.012.4.018.608.025a2.962,2.962,0,0,1-2.129,1.592" transform="translate(-506.329 -793)" fill="#cfcfcf"/>
  <path id="Path_1246" data-name="Path 1246" d="M935.238,917.748c0-.172-.006-.352-.013-.524.525-.376,1.049-.759,1.567-1.132.2,0,.389.006.577.006a3.3,3.3,0,0,1-2.132,1.65" transform="translate(-476.784 -815.135)" fill="#dcdcdc"/>
  <path id="Path_1247" data-name="Path 1247" d="M951.745,905.679l-.494-.453c.5-.373,1.006-.744,1.509-1.12.179.16.352.314.525.466-.515.376-1.027.737-1.539,1.108" transform="translate(-443.371 -840.122)" fill="#e8e8e8"/>
  <path id="Path_1248" data-name="Path 1248" d="M951.4,905.116c.175.154.352.312.527.46-.669.429-1.336.87-2,1.3l-.028-.651Z" transform="translate(-446.19 -838.017)" fill="#e7e7e7"/>
  <path id="Path_1249" data-name="Path 1249" d="M910.341,936.206c.663-.694,1.218-1.552,2.326-1.58a2.223,2.223,0,0,1-2.326,1.58" transform="translate(-528.664 -776.492)" fill="#c1c0c0"/>
  <path id="Path_1250" data-name="Path 1250" d="M917.769,930.53a3.89,3.89,0,0,1,1.764-1.422c-.049,1.145-.734,1.5-1.764,1.422" transform="translate(-513.177 -787.996)" fill="silver"/>
  <path id="Path_1251" data-name="Path 1251" d="M931.035,920.5l.018.534a1.565,1.565,0,0,1-1.808.913,4.3,4.3,0,0,1,1.79-1.447" transform="translate(-489.251 -805.947)" fill="#c7c7c6"/>
  <path id="Path_1252" data-name="Path 1252" d="M917.089,931.045a4.062,4.062,0,0,1,1.78-1.432c-.046,1.151-.756,1.49-1.78,1.432" transform="translate(-514.595 -786.943)" fill="#c1c1c1"/>
  <path id="Path_1253" data-name="Path 1253" d="M918.445,930.019a3.713,3.713,0,0,1,1.752-1.413c-.046,1.132-.731,1.484-1.752,1.413" transform="translate(-511.768 -789.043)" fill="#c4c4c4"/>
  <path id="Path_1254" data-name="Path 1254" d="M916.482,931.544c.2-.83.941-1.074,1.573-1.425-.025,1.03-.577,1.472-1.573,1.425" transform="translate(-515.861 -785.888)" fill="#c1c1c1"/>
  <path id="Path_1255" data-name="Path 1255" d="M913.769,933.532c.269-.774.966-1.055,1.614-1.382a1.3,1.3,0,0,1-1.614,1.382" transform="translate(-521.517 -781.654)" fill="#c1c0c1"/>
  <path id="Path_1256" data-name="Path 1256" d="M911.919,934.607c.411-.543.821-1.08,1.614-.984-.34.648-.54,1.527-1.614.984" transform="translate(-525.374 -778.607)" fill="#bfbfbf"/>
  <path id="Path_1257" data-name="Path 1257" d="M912.43,934.574c.222-.824.935-1.086,1.592-1.419a1.336,1.336,0,0,1-1.592,1.419" transform="translate(-524.309 -779.559)" fill="#bebebe"/>
  <path id="Path_1258" data-name="Path 1258" d="M923.177,926.469a3.724,3.724,0,0,1,1.725-1.4c-.049,1.114-.685,1.508-1.725,1.4" transform="translate(-501.902 -796.419)" fill="#c8c8c8"/>
  <path id="Path_1259" data-name="Path 1259" d="M923.848,925.97a3.8,3.8,0,0,1,1.74-1.413c-.034,1.132-.706,1.5-1.74,1.413" transform="translate(-500.503 -797.484)" fill="#c4c4c4"/>
  <path id="Path_1260" data-name="Path 1260" d="M864.968,1139.161c-.919-1.1.213-1,.728-1.2q10.823-4.336,21.659-8.659,34.548-13.808,69.08-27.6,35.621-14.262,71.215-28.557a4.467,4.467,0,0,1,4.649.364c1.885,1.382,4.7,1.33,5.858,3.816-.756,1.222-2.1,1.478-3.289,1.947-17.482,6.944-34.905,14.048-52.357,21.067-31.762,12.777-63.484,25.675-95.271,38.413-4.254,1.712-8.4,3.7-12.827,5.007a24.845,24.845,0,0,1-9.446-4.591" transform="translate(-623.989 -488.703)" fill="#191919"/>
  <path id="Path_1261" data-name="Path 1261" d="M868.311,1140.225q31.2-12.619,62.4-25.225,49.647-20.045,99.3-40.048c.719-.293,1.459-.524,2.187-.781.392,4.362-1.29,6.633-5.7,8.385q-79.187,31.41-158.171,63.323a5.178,5.178,0,0,1-.012-5.654" transform="translate(-618.031 -485.557)" fill="#c1c1c1"/>
  <path id="Path_1262" data-name="Path 1262" d="M840.668,1133.509q-.023-18.809-.046-37.632c0-.786-.327-1.98,1.008-1.969,1.524.025,1.108,1.37,1.024,2.181-1.086,10.955-.21,21.934-.466,32.9-.025.972-.41,2.116.657,2.881a5.3,5.3,0,0,1-2.178,1.638" transform="translate(-674.094 -444.407)" fill="#c1c1c1"/>
  <path id="Path_1263" data-name="Path 1263" d="M874.246,1098.429c0,1.882.006,3.773.012,5.655-3.384-.525-6.3-2.323-8.912-4.232-1.388-1.006-.314-3.7-.4-5.633,3.254,1.073,5.978,3.3,9.3,4.211" transform="translate(-623.966 -443.761)" fill="#dfdcdc"/>
  <path id="Path_1264" data-name="Path 1264" d="M842.441,1121.042a158.834,158.834,0,0,1,0-25.981v25.981" transform="translate(-671.338 -442.003)" fill="#c1c1c1"/>
  <path id="Path_1265" data-name="Path 1265" d="M910.412,949.012a94.667,94.667,0,0,0,20.521,2.551,10.464,10.464,0,0,1,4.47,1.03c9.292,4.393,18.62,8.715,27.937,13.052-.309,2.434-1.527,4.68-1.431,7.188-.546,1.746-.614,3.619-1.49,5.275a2.082,2.082,0,0,0-.481,1.58c.213,1.681-.614,3.143-.941,4.7-.962,3.807-1.931,7.617-2.863,11.436-.2.805-.281,1.719-1.089,2.243-1.49.435-2.421-.846-3.661-1.188-2.573-1.311-5.291-2.3-7.873-3.581-1-.506-2.085-.781-3.082-1.281-2.749-1.478-5.667-2.576-8.493-3.875-2.9-1.228-5.818-2.425-8.668-3.773-1.762-.87-3.532-1.74-5.362-2.474-2.184-.894-4.263-2.021-6.488-2.826-1.657-1.024-3.563-1.518-5.284-2.413-.524-.268-1.055-.536-1.6-.768-1.1-.432-2.181-.9-3.286-1.308-1.687-.623-3.255-1.512-4.868-2.283a11.069,11.069,0,0,0-1.919-.864c-1.234-.41-2.339-1.12-3.578-1.524a39.728,39.728,0,0,1-3.875-1.777,9.6,9.6,0,0,0-1.919-.87,21.005,21.005,0,0,1-2.021-.805c-5.411-2.687-11.056-4.846-16.492-7.475-.632-.383-1.419-.537-1.823-1.246,3.069-1.036,6.275-.654,9.406-.8,10.948-.506,21.9-.845,32.863-1.1,1.922-.049,2.607-.518,2.391-2.468a36.135,36.135,0,0,1,.006-4.393c.327.012.657.019.99.031" transform="translate(-623.703 -746.563)" fill="#cfd1d2"/>
  <path id="Path_1266" data-name="Path 1266" d="M906.2,985.626c2.656-.167,5.322-.339,7.981-.5a5.4,5.4,0,0,1,2.77.339c6.957,3.19,13.937,6.336,20.909,9.5q-3.9,15.83-7.783,31.666c-.268,1.1-.407,2.264-2.027,1.592-2.7-.222-4.828-1.968-7.333-2.706a35.448,35.448,0,0,0-4.766-2.1c-3.054-1.468-6.145-2.869-9.295-4.13-2.431-1.317-5.065-2.193-7.527-3.452-1.376-.62-2.814-1.12-4.165-1.792-9.353-4.155-18.7-8.292-28.026-12.5a4.671,4.671,0,0,1-2.372-1.514c3.356-.947,6.83-.614,10.239-.793,7.595-.383,15.206-.494,22.81-.728a15.3,15.3,0,0,0,4.365-.447c1.12-.666,2.456.164,3.569-.506q.333-5.96.651-11.92" transform="translate(-624.108 -671.277)" fill="#cfd1d2"/>
  <path id="Path_1267" data-name="Path 1267" d="M933.788,981.279l8.5,3.915c.691,1.132,1.811,1.215,2.962,1.228q3.915,1.782,7.82,3.56c.978.774,1.842,1.74,3.211,1.811.358-.025.7-.046.944.287.117,2.132-1.552,3.825-1.456,6.056.018.506-1.376,1.514-1.132,2.758-6.639-2.891-13.28-5.756-19.9-8.69-7.965-3.523-15.9-7.1-23.849-10.661-6.627-2.94-13.231-5.932-19.895-8.8-6.114-2.622-12.117-5.494-18.262-8.076-2.4-1.009-4.834-2.169-7.213-3.356-1.08-.531-1.8-1.317-1.37-2.412.839-2.076.673-4.34,1.505-6.392.753-.814,1.724-.308,2.588-.429l16.81,7.614a1.429,1.429,0,0,0,1.913.737c.552.287,1.12.58,1.681.857.959,1.046,2.335,1.336,3.532,1.962a4.943,4.943,0,0,0,4.155,1.342l1.662.876a8.285,8.285,0,0,0,5.115,2.2,9.868,9.868,0,0,1,3.171,1.465,1.145,1.145,0,0,0,1.511.608,27.435,27.435,0,0,1,5.337,2.468,16,16,0,0,0,6.608,2.826L925,977.463a.821.821,0,0,0,.5.836c2.878.667,5.155,3.026,8.283,2.98" transform="translate(-625.247 -740.205)" fill="#d0c6bc"/>
  <path id="Path_1268" data-name="Path 1268" d="M928.091,1029.055c-.059-.963-.858-1.21-1.539-1.536-6.889-3.273-13.786-6.528-20.866-9.357-2.4-1.885-5.309-2.708-8.012-3.964-4.843-2.255-9.745-4.393-14.619-6.592-5.3-2.379-10.55-4.871-15.9-7.111-2.94-1.234-3.773-2.749-2.588-5.818a14.166,14.166,0,0,0,1.073-4.745q14.108,6.149,28.217,12.321c.858.371,1.669.852,2.5,1.281a6.39,6.39,0,0,0,4.078,1.706l7.493,3.415c1.471,1.509,3.551,1.854,5.352,2.73,1.157.571,2.323,1.145,3.511,1.663a9.509,9.509,0,0,1,3.807,1.971c2.807.645,5.253,2.242,7.971,3.125,2.215,2.027,1.435,4.4.4,6.5-.728,1.471.213,3.116-.882,4.408" transform="translate(-625.187 -661.185)" fill="#cfc6bc"/>
  <path id="Path_1269" data-name="Path 1269" d="M904.969,1043.208c-.124.37-.25.747-.379,1.114a9.661,9.661,0,0,1-1.206,5.6c-.54,1.913-1.077,3.832-1.619,5.744-2.064.312-3.656-.993-5.334-1.752q-15.02-6.83-30.006-13.743a2.052,2.052,0,0,1-1.317-1.163c2.545-.923,5.223-.75,7.851-.919,8.28-.53,16.55-1.071,24.837-1.447,1.8-.077,2-.775,2.091-2.3.241-3.825-.117-7.7.913-11.461a12.177,12.177,0,0,1,8.881.021c.577,2.992-1.24,5.537-1.558,8.363-.435,1.592-.577,3.267-1.478,4.7a5.394,5.394,0,0,0-.546,3.141,10.379,10.379,0,0,1-1.129,4.093" transform="translate(-622.974 -594.209)" fill="#cfd1d2"/>
  <path id="Path_1270" data-name="Path 1270" d="M902.913,1044.646c1.024,1.348,1.438,2.718.071,4.1-1.08,1.082-.2,2.514-.691,3.665-.364.851-.12,1.919-.919,2.6a2.343,2.343,0,0,0-1.3-2.042c-8.755-4.035-17.439-8.24-26.277-12.09-2.665-1.156-5.109-2.764-7.882-3.7a2.208,2.208,0,0,1-1.638-3.122c.577-2.027.984-4.118,1.728-6.108,1.221-.777,2.187.182,3.119.62,7.49,3.52,15.073,6.858,22.566,10.4,2.647,1.246,5.269,2.545,7.975,3.683,1.157.491,2.468.852,3.254,2" transform="translate(-625.061 -582.54)" fill="#cfc6bc"/>
  <path id="Path_1271" data-name="Path 1271" d="M901.694,1045.064q-9.833-4.549-19.669-9.094c-5.167-2.4-10.322-4.828-15.5-7.206a8.582,8.582,0,0,0-1.743-.4c-.447-1.854.882-.247,1.194-.608l32.906,14.928c1.253.567,2.5,1.151,3.748,1.731.389,1.228-.685.339-.934.647" transform="translate(-623.842 -582.958)" fill="#e7e4e1"/>
  <path id="Path_1272" data-name="Path 1272" d="M867.133,952.515c-.759.75-1.724.309-2.588.429a1.14,1.14,0,0,1,.651-1.123q.972.343,1.937.694" transform="translate(-624.143 -740.642)" fill="#d2cfcd"/>
  <path id="Path_1273" data-name="Path 1273" d="M880.259,989.167c-1.067,1.021-2.366.413-3.569.506,1.074-.981,2.379-.345,3.569-.506" transform="translate(-598.822 -662.898)" fill="#dbdbdb"/>
  <path id="Path_1274" data-name="Path 1274" d="M903.243,952.83a10.3,10.3,0,0,1-5.837,1.616c-2.27.037-4.637-.673-6.836.685-.793.484-1.265-.321-1.33-1.067-.123-1.542-.284-3.242,1.145-4.236,1.169-.817-.123-1.067-.123-1.579,3.165.065,6.24-.675,9.344-1.117.734.346.765.882.305,1.432a2.531,2.531,0,0,0-.555,1.894c.064,1.277-.1,2.736,2.021,1.909a1.62,1.62,0,0,1,1.866.463" transform="translate(-572.818 -750.418)" fill="#8e8e8c"/>
  <path id="Path_1275" data-name="Path 1275" d="M896.925,954.913a9.368,9.368,0,0,1-1.527,0c-1.079-.161-2.8,1.348-2.813.543-.012-1.567-1.172-3.511.562-4.9.549-.441.352-.87.142-1.342q3.914-1.536,7.826-3.082c-.321.518,1.718-.117.46,1.311-1.2,1.373-.734,3.8-1.586,5.633-.114.244.7.216,1.1.275-1.166,1.113-2.872.793-4.165,1.561" transform="translate(-566.5 -752.501)" fill="#929292"/>
  <path id="Path_1276" data-name="Path 1276" d="M884.034,947.18c-.352.7-.981.441-1.53.441-1.074-.805-2.616-.432-3.606-1.45,1.829-.262,3.473.41,5.136,1.009" transform="translate(-594.219 -752.543)" fill="#b8b8b7"/>
  <path id="Path_1277" data-name="Path 1277" d="M888.179,947.479a5,5,0,0,1-4.6-.117c-.179-.074-.24-.157-.185-.24s.108-.13.166-.13c1.478.774,3.094.167,4.618.487" transform="translate(-584.886 -750.712)" fill="#e2e1e0"/>
  <path id="Path_1278" data-name="Path 1278" d="M889.841,947.423c-1.259.876-2.659.315-4,.383-.062,0-.962.25-.241-.352.167-.151.49-.133.74-.185Z" transform="translate(-580.822 -750.133)" fill="#ccc"/>
  <path id="Path_1279" data-name="Path 1279" d="M879.842,946.9c-.654-.487-1.74-.213-2.135-1.172.805.213,1.956-.191,2.135,1.172" transform="translate(-596.702 -753.343)" fill="#aaaaa9"/>
  <path id="Path_1280" data-name="Path 1280" d="M885.19,947.145a2.4,2.4,0,0,0,.012.367c-.913,0-1.931.435-2.61-.6.864.077,1.728.148,2.6.228" transform="translate(-586.515 -750.867)" fill="#f1f1f1"/>
  <path id="Path_1281" data-name="Path 1281" d="M870.855,1077.48c1.222.645.268,1.1-.191,1.456q-9.028,7.168-18.108,14.292c-.642-1.176.549-1.471,1.055-1.9,5.109-4.328,10.276-8.592,15.443-12.839a12.038,12.038,0,0,1,1.8-1.009" transform="translate(-649.527 -478.658)" fill="#2d2e30"/>
  <path id="Path_1282" data-name="Path 1282" d="M895.058,974.561l-1.027-.037c-.179-.1-.237-.207-.179-.315s.126-.151.185-.151c1.974-3.844,2.274-8.169,3.619-12.2.154-.481.345-.947.518-1.422.395.256.173.814.536,1.083-1.524,4.257-1.894,8.847-3.652,13.043" transform="translate(-563.088 -722.683)" fill="#e0ddda"/>
  <path id="Path_1283" data-name="Path 1283" d="M880.889,1022.528c.167,0,.333-.009.5-.009.219.1.632.256.626.278q-1.305,4.313-2.665,8.6c-.4-.238-.2-.731-.429-1.049a52.954,52.954,0,0,1,1.968-7.82" transform="translate(-594.171 -593.245)" fill="#dfddda"/>
  <path id="Path_1284" data-name="Path 1284" d="M890.595,1001.334a4.954,4.954,0,0,1-2.517-.46,20.322,20.322,0,0,0-5.818-2.147c.37-.891,1.061-.8,1.8-.6a36.882,36.882,0,0,1,7.086,3.184l-.552.019" transform="translate(-587.212 -644.376)" fill="#d5d1cd"/>
  <path id="Path_1285" data-name="Path 1285" d="M877.514,1034.869c.4-1.86.806-3.733,1.2-5.593,1.086,2.205.019,4.186-.781,6.139-.13.318-.284-.339-.423-.546" transform="translate(-597.104 -579.158)" fill="#dcd7d4"/>
  <path id="Path_1286" data-name="Path 1286" d="M895.776,964.64a1.218,1.218,0,0,1-.537-1.083,17.221,17.221,0,0,1,1.145-4.621c1.083,2.039-.759,3.767-.608,5.7" transform="translate(-560.15 -725.808)" fill="#e7e4e2"/>
  <path id="Path_1287" data-name="Path 1287" d="M895.766,961.988a12.744,12.744,0,0,1,1.49-5.275c.009,1.906.083,3.819-1.49,5.275" transform="translate(-559.051 -730.443)" fill="#e3e1de"/>
  <path id="Path_1288" data-name="Path 1288" d="M878.028,1031.68a8.323,8.323,0,0,1,1.129-4.093c.744,1.567-.1,2.884-.694,4.233-.016.034-.167.04-.231.015s-.136-.1-.2-.154" transform="translate(-596.033 -582.681)" fill="#dcd8d4"/>
  <path id="Path_1289" data-name="Path 1289" d="M879.651,1025.058l.429,1.049c-.417,1.24.049,2.844-1.509,3.606.358-1.549.716-3.1,1.08-4.656" transform="translate(-594.901 -587.952)" fill="#e8e5e1"/>
  <path id="Path_1290" data-name="Path 1290" d="M841.527,1065.143c6.509-5.75,12.737-11.235,18.923-16.76a1.548,1.548,0,0,1,2.039-.2c4.143,2.1,8.314,4.137,12.827,6.37-4.615,3.983-9.011,7.777-13.416,11.574-1.835,1.586-3.76,3.063-5.485,4.757-1.24,1.222-2.206,1.444-3.779.485-3.529-2.153-7.206-4.06-11.109-6.226" transform="translate(-672.133 -540.343)" fill="#fff"/>
  <path id="Path_1291" data-name="Path 1291" d="M906.316,1008.156c6.5,2.659,12.851,5.651,19.12,8.81.216,2.6-.691,5.041-1.012,7.576-.2,1.542-1.049,1.589-2.193,1.095a132.082,132.082,0,0,1-12.972-6.157,5.892,5.892,0,0,0-.91-.487c-1.546-.537-4.112-.269-4.106-2.326.009-2.884-.216-6.077,2.073-8.511" transform="translate(-541.383 -623.19)" fill="#cfc6bc"/>
  <path id="Path_1292" data-name="Path 1292" d="M907.176,969.934c6.306,2.708,12.475,5.689,18.562,8.841a27.506,27.506,0,0,1-.99,6.848c-.382,1.567-1.293,1.823-2.712,1.216-5.155-2.206-10.044-5.007-15.443-6.651a2.845,2.845,0,0,1-2.163-3.591c.444-2.092,1.031-4.159,1.518-6.244.21-.867.793-.364,1.228-.42" transform="translate(-541.179 -703.077)" fill="#d0c6bc"/>
  <path id="Path_1293" data-name="Path 1293" d="M906.525,1046.114q8.26,4.192,16.526,8.36c.842.429,1.724.765,2.588,1.145.077,2.641-1.086,5.032-1.515,7.564-.207,1.234-.812.805-1.441.531q-6.215-2.726-12.435-5.46c-1.657-.731-3.332-1.428-4.958-2.233-1.222-.6-1.82-1.509-1.1-2.952,1.1-2.2.333-5.047,2.338-6.953" transform="translate(-542.138 -544.052)" fill="#cfc6bc"/>
  <path id="Path_1294" data-name="Path 1294" d="M931.856,1009.865c1.663-.068,3.331-.127,4.994-.2.919.077,1.835.16,2.755.244-2.594.139-5.192.925-7.749-.046" transform="translate(-483.808 -620.038)" fill="#d1d1d1"/>
  <path id="Path_1295" data-name="Path 1295" d="M929.158,1010.026q2.5-.1,5.019-.182c.737.071,1.472.154,2.209.238-2.425.16-4.849.845-7.228-.056" transform="translate(-489.432 -619.671)" fill="#cfcfcf"/>
  <path id="Path_1296" data-name="Path 1296" d="M923.926,1010.345c1.5-.052,3.008-.111,4.51-.16.716.216,1.539-.185,2.57.62-2.61-.25-4.871.484-7.08-.46" transform="translate(-500.341 -618.96)" fill="#c3c2c3"/>
  <path id="Path_1297" data-name="Path 1297" d="M926.8,1010.156c1.345-.049,2.693-.09,4.038-.133a.856.856,0,0,1,.241.09c.108.1.2.2.309.305-1.549.185-3.1.543-4.587-.262" transform="translate(-494.355 -619.298)" fill="#dedede"/>
  <path id="Path_1298" data-name="Path 1298" d="M918.868,1010.631c1.03-.031,2.064-.053,3.094-.083a2.481,2.481,0,0,1-3.094.083" transform="translate(-510.886 -618.203)" fill="#d1d1d2"/>
  <path id="Path_1299" data-name="Path 1299" d="M921.566,1010.455c1.031-.022,2.064-.052,3.1-.077a2.466,2.466,0,0,1-3.1.077" transform="translate(-505.261 -618.558)" fill="#d5d5d6"/>
  <path id="Path_1300" data-name="Path 1300" d="M915.487,933.748l5-.089c2.307-.454,4.667.16,6.969-.339h2.085c.16.1.219.191.16.287s-.108.142-.16.142a38.045,38.045,0,0,1-14.055,0" transform="translate(-517.935 -779.217)" fill="#deddde"/>
  <path id="Path_1301" data-name="Path 1301" d="M929.664,933.1l9.193-.173q1.634.125,3.261.256c-4.162.077-8.323.928-12.454-.083" transform="translate(-488.378 -780.034)" fill="#dcdcdd"/>
  <path id="Path_1302" data-name="Path 1302" d="M924.775,933.259q4.345-.092,8.69-.16c.9.1,1.792.2,2.693.3-3.81-.019-7.617.876-11.383-.142" transform="translate(-498.571 -779.675)" fill="#efeeee"/>
  <path id="Path_1303" data-name="Path 1303" d="M920.043,933.861v-.429q3.581-.078,7.163-.166c1.191.09,2.385.179,3.575.262,0,.114,0,.222.006.333Z" transform="translate(-508.436 -779.329)" fill="#f1f1f1"/>
  <path id="Path_1304" data-name="Path 1304" d="M924.072,933.364c-2.283.864-4.631.423-6.963.346a26.741,26.741,0,0,1,6.963-.346" transform="translate(-514.553 -779.262)" fill="#c0c0c1"/>
  <path id="Path_1305" data-name="Path 1305" d="M892.987,964.091c-1.49.614-2.739.678-3.967-.775-1.228-1.469-3.606-.287-5.044-1.879-.756-.839-.268-.864.225-1.163q4.392,1.907,8.786,3.816" transform="translate(-584.447 -723.017)" fill="#cac5c1"/>
  <path id="Path_1306" data-name="Path 1306" d="M887.051,961.4c-2.742.49-4.781-1.7-7.327-2-.167-.025.37-.614.716-.83Z" transform="translate(-592.562 -726.573)" fill="#d0ccc7"/>
  <path id="Path_1307" data-name="Path 1307" d="M880.143,958.585c-2.027.37-4.5-.7-5.115-2.2,1.912.247,3.26,1.82,5.115,2.2" transform="translate(-602.287 -731.127)" fill="#d7d3cf"/>
  <path id="Path_1308" data-name="Path 1308" d="M877.294,957.165c-1.743.907-2.992.065-4.149-1.145a.807.807,0,0,1,.512-.429q1.823.787,3.637,1.573" transform="translate(-606.213 -732.78)" fill="#d3cfcb"/>
  <path id="Path_1309" data-name="Path 1309" d="M876.05,956.763c-.172.142-.345.284-.512.423-1.274-.562-2.934-.494-3.542-2.153,1.527.157,2.628,1.336,4.053,1.731" transform="translate(-608.607 -733.948)" fill="#dad6d1"/>
  <path id="Path_1310" data-name="Path 1310" d="M892.352,964.01c-1.521.876-2.44.3-2.965-1.228.984.4,1.974.821,2.965,1.228" transform="translate(-572.35 -717.79)" fill="#d1ccc6"/>
  <path id="Path_1311" data-name="Path 1311" d="M896.014,965.933c-.006.151-.006.312-.006.466a3.025,3.025,0,0,1-3.125-2.067c1.234.167,2.045,1.151,3.131,1.6" transform="translate(-565.062 -714.558)" fill="#cbc6c5"/>
  <path id="Path_1312" data-name="Path 1312" d="M879.485,958.187a1.208,1.208,0,0,1-1.758.173c-.3-.231-.049-.577.25-.786Z" transform="translate(-596.943 -728.65)" fill="#d4cfc9"/>
  <path id="Path_1313" data-name="Path 1313" d="M872.745,955.253c-.966.6-1.681.555-1.913-.74.636.247,1.274.491,1.913.74" transform="translate(-611.036 -735.03)" fill="#dddad6"/>
  <path id="Path_1314" data-name="Path 1314" d="M887.174,1000.8a66.549,66.549,0,0,0-7.864-3.3c-.53-.148-1.758-.358-.8-1.5a75.731,75.731,0,0,1,9.381,4.18c-.117.34-.494.392-.713.62" transform="translate(-595.77 -648.534)" fill="#d2cdc8"/>
  <path id="Path_1315" data-name="Path 1315" d="M881.078,997.975q.356-.305.713-.62a18.61,18.61,0,0,1,4.735,2.11c-.611.2-1.206.392-1.808.6a6.315,6.315,0,0,0-3.64-2.086" transform="translate(-589.674 -645.709)" fill="#d4cfcc"/>
  <path id="Path_1316" data-name="Path 1316" d="M878.6,996.047c-1.765.4-3.208.04-4.078-1.706,1.36.574,2.718,1.132,4.078,1.706" transform="translate(-603.349 -651.993)" fill="#cfcac5"/>
</svg>
