<svg xmlns="http://www.w3.org/2000/svg" width="166.815" height="88.221" viewBox="0 0 166.815 88.221">
  <g id="ninologo" transform="translate(0 0)">
    <path id="Path_1329" data-name="Path 1329" d="M353.446,129.986c0,12.113-8.886,21.933-19.847,21.933s-19.847-9.82-19.847-21.933,8.886-21.933,19.847-21.933S353.446,117.873,353.446,129.986Zm-19.325,8.961c5.248,0,9.5-4.7,9.5-10.5s-4.255-10.5-9.5-10.5-9.5,4.7-9.5,10.5,4.254,10.5,9.5,10.5Z" transform="translate(-186.631 -64.274)" fill="#0094d3"/>
    <g id="Group_655" data-name="Group 655" transform="translate(90.147 40.273)">
      <path id="Path_1330" data-name="Path 1330" d="M257.538,146.771c-4.3-.186-7.841-8.231-7.013-17.9,1.52-17.821-9.634-13.64-11.795-13.121.1,1.226.176,2.495.206,3.8.035,1.268.028,2.568-.01,3.892-.416,13.137-4.42,23.668-8.946,23.529s-7.865-10.911-7.449-24.044,4.416-23.674,8.946-23.528c2.015.062,3.8,2.24,5.12,5.8a.113.113,0,0,1,.031-.019c1-.5,28.157-14.389,29.466,21.491.036.937.02,1.9-.021,2.88C265.652,139.243,261.83,146.956,257.538,146.771Z" transform="translate(-222.496 -99.398)" fill="#94c83d"/>
    </g>
    <ellipse id="Ellipse_136" data-name="Ellipse 136" cx="24.137" cy="9.03" rx="24.137" ry="9.03" transform="translate(73.934 87.522) rotate(-87.782)" fill="#0094d3"/>
    <path id="Path_1331" data-name="Path 1331" d="M102.565,92.949c-.357,3.24-.862,6.466-1.537,9.655a74.755,74.755,0,0,1-2.24,8.325,42.181,42.181,0,0,1-2.733,6.507,15.927,15.927,0,0,1-3.023,4.2,5.957,5.957,0,0,1-4.344,1.668,8.071,8.071,0,0,1-2.824-.755,14.733,14.733,0,0,1-2-1.147,32.8,32.8,0,0,1-4.584-3.821,68.847,68.847,0,0,1-5.112-5.619c-1.888-2.3-3.665-4.684-5.356-7.129q-2.815-4.074-5.314-8.353c-.449-.768-.884-1.533-1.313-2.293a95.45,95.45,0,0,1-1.887,10.647,64.9,64.9,0,0,1-2.713,8.81,29.14,29.14,0,0,1-3.245,6.276,11.951,11.951,0,0,1-1.555,1.812,6,6,0,0,1-4.26,1.63,4.47,4.47,0,0,1-3.269-2.382,18.768,18.768,0,0,1-2.146-5.728,50.565,50.565,0,0,1-1.128-8.345A85.775,85.775,0,0,1,42,96.656q.155-2.64.447-5.275a95.6,95.6,0,0,1,2.411-13.427A54.885,54.885,0,0,1,48.508,67.6c1.04-2.139,2.336-4.48,4.307-5.909a3.927,3.927,0,0,1,4.16-.251,27.3,27.3,0,0,1,7.441,5.184,70.461,70.461,0,0,1,7.328,8.225A120.428,120.428,0,0,1,79.388,86q.606,1,1.2,2c.9,1.532,1.749,3.059,2.56,4.56.038-.426.086-.85.131-1.28C85.176,74,90.961,60.337,96.19,60.743c1.266.1,2.378,1.011,3.316,2.582C102.692,67.807,104.047,79.468,102.565,92.949Z" transform="translate(-24.885 -36.129)" fill="#94c83d"/>
    <g id="Group_656" data-name="Group 656" transform="translate(34.605 0)">
      <path id="Path_1332" data-name="Path 1332" d="M102.093,12.4c-.08,6.592-1.627,11.91-3.448,11.891-.591-.008-1.139-.578-1.608-1.572a10.877,10.877,0,0,1-.612-1.706,28.554,28.554,0,0,1-.89-6.241c-2.611,1.008-9.361,2.611-10.1-7.657-.019-.326-.026-.661-.025-1,.046-3.39,1.365-6.129,2.95-6.11s2.986,2.793,2.79,6.183c-.343,6,3.4,4.779,4.392,4.492.3-5.81,1.731-10.265,3.4-10.245C100.764.453,102.177,5.809,102.093,12.4Z" transform="translate(-85.413 0)" fill="#f26b28"/>
    </g>
    <g id="Group_657" data-name="Group 657" transform="translate(20.643 6.553)">
      <path id="Path_1333" data-name="Path 1333" d="M62.316,21c-.16-.247-.331-.486-.5-.713-6.685-8.647-10.671-1.04-10.8-.754-.262.56.423,1.28.848,1.644.788.679,1.343.48,2-.148.6-.573,2.144-1.854,3.825-.328a3.7,3.7,0,0,0-1.051.365c-1,.527-2.907,1.685-3.606,3.156a4.5,4.5,0,0,0,.4,4.353c2.071,2.634,7.361.994,8.974-1.89a1.172,1.172,0,0,0,1.09-.042C64.477,25.994,63.951,23.464,62.316,21ZM59.7,26.64c-.24.127-3.3,2.073-4.465.3-1.274-1.938.96-3.8,2.445-4.12a3.207,3.207,0,0,1,1.48,0c.057.108.11.218.16.334a9.743,9.743,0,0,0,1.333,2.15A1.874,1.874,0,0,1,59.7,26.64Z" transform="translate(-50.95 -16.171)" fill="#f26b28"/>
    </g>
    <path id="Path_1334" data-name="Path 1334" d="M20.661,18.287c-1.4,1,.226,5.68,3.636,10.458s7.31,7.833,8.712,6.833-.226-5.68-3.636-10.458S22.063,17.286,20.661,18.287Z" transform="translate(-11.991 -10.764)" fill="#f26b28"/>
    <g id="Group_658" data-name="Group 658" transform="translate(0 22.025)">
      <path id="Path_1335" data-name="Path 1335" d="M3.015,57.234A6.3,6.3,0,0,0,1.988,61.2C1.134,61.075.5,61.2.2,61.6c-.953,1.262,1.632,4.813,5.768,7.93s8.263,4.625,9.218,3.36c.762-1.017-.761-3.52-3.546-6.081a6.235,6.235,0,0,0,2.528-2.2,6.577,6.577,0,0,0-2-9.082,6.577,6.577,0,0,0-9.146,1.7Zm7.946,5.051A3.13,3.13,0,0,1,7.13,63.4a3.382,3.382,0,0,1-.546-.294c-.074-.049-.146-.1-.214-.152a3.1,3.1,0,1,1,4.591-.668Z" transform="translate(0 -54.374)" fill="#f26b28"/>
      <path id="Path_1336" data-name="Path 1336" d="M16.486,75.976a3.379,3.379,0,0,1-.546-.294c-.074-.049-.146-.1-.214-.152C15.977,75.666,16.231,75.819,16.486,75.976Z" transform="translate(-9.353 -66.953)" fill="#f26b28"/>
    </g>
    <circle id="Ellipse_137" data-name="Ellipse 137" cx="4.813" cy="4.813" r="4.813" transform="translate(79.615 28.37)" fill="#f26b28"/>
    <path id="Path_1337" data-name="Path 1337" d="M308.447,91.453" transform="translate(-183.476 -54.4)" fill="#0094d3"/>
  </g>
</svg>
