<svg xmlns="http://www.w3.org/2000/svg" xmlns:xlink="http://www.w3.org/1999/xlink" width="183" height="35" viewBox="0 0 183 35">
  <defs>
    <clipPath id="clip-path">
      <rect width="35" height="35" fill="none"/>
    </clipPath>
  </defs>
  <g id="social" transform="translate(-1146.68 -826.874)">
    <g id="Symbol_11_1" data-name="Symbol 11 – 1" transform="translate(1294.68 826.873)" clip-path="url(#clip-path)">
      <rect id="Rectangle_392" data-name="Rectangle 392" width="35" height="35" transform="translate(0 0)" fill="none"/>
      <path id="Path_1" data-name="Path 1" d="M91.774,34.744V18.916h5.4l.772-6.177H91.774V8.879c0-1.737.579-3.088,3.088-3.088h3.281V.193c-.772,0-2.7-.193-4.826-.193C88.686,0,85.4,2.9,85.4,8.107V12.74H80v6.177h5.4V34.744Z" transform="translate(-71.314 0.001)" fill-rule="evenodd"/>
    </g>
    <g id="Symbol_12_1" data-name="Symbol 12 – 1" transform="translate(1225.68 826.873)" clip-path="url(#clip-path)">
      <rect id="Rectangle_393" data-name="Rectangle 393" width="35" height="35" transform="translate(0 0)" fill="none"/>
      <path id="Path_2" data-name="Path 2" d="M49,30.181c13.126,0,20.267-10.809,20.267-20.267V8.949a15.69,15.69,0,0,0,3.474-3.667A16.023,16.023,0,0,1,68.691,6.44a7.51,7.51,0,0,0,3.088-3.86,17.7,17.7,0,0,1-4.44,1.737A6.893,6.893,0,0,0,62.128,2a7.252,7.252,0,0,0-7.142,7.142,3.763,3.763,0,0,0,.193,1.544,19.956,19.956,0,0,1-14.67-7.528,7.392,7.392,0,0,0-.965,3.667,7.669,7.669,0,0,0,3.088,5.984,6.507,6.507,0,0,1-3.281-.965h0a7.054,7.054,0,0,0,5.791,6.949,5.951,5.951,0,0,1-1.93.193,3.285,3.285,0,0,1-1.351-.193,7.313,7.313,0,0,0,6.756,5.019A14.574,14.574,0,0,1,39.737,26.9,5.344,5.344,0,0,1,38,26.707a18.219,18.219,0,0,0,11,3.474" transform="translate(-38 2.342)" fill-rule="evenodd"/>
    </g>
    <g id="Symbol_13_1" data-name="Symbol 13 – 1" transform="translate(1146.68 826.873)" clip-path="url(#clip-path)">
      <path id="Path_3" data-name="Path 3" d="M17.372,3.088a53.267,53.267,0,0,1,6.949.193A8.953,8.953,0,0,1,27.6,3.86a6.779,6.779,0,0,1,3.281,3.281,8.953,8.953,0,0,1,.579,3.281c0,1.737.193,2.316.193,6.949a53.267,53.267,0,0,1-.193,6.949,8.953,8.953,0,0,1-.579,3.281A6.779,6.779,0,0,1,27.6,30.884a8.953,8.953,0,0,1-3.281.579c-1.737,0-2.316.193-6.949.193a53.267,53.267,0,0,1-6.949-.193,8.953,8.953,0,0,1-3.281-.579A6.779,6.779,0,0,1,3.86,27.6a8.953,8.953,0,0,1-.579-3.281c0-1.737-.193-2.316-.193-6.949a53.267,53.267,0,0,1,.193-6.949A8.953,8.953,0,0,1,3.86,7.142a6.933,6.933,0,0,1,1.351-1.93A3.263,3.263,0,0,1,7.142,3.86a8.953,8.953,0,0,1,3.281-.579,53.267,53.267,0,0,1,6.949-.193m0-3.088A57.033,57.033,0,0,0,10.23.193,11.917,11.917,0,0,0,5.984.965,7.556,7.556,0,0,0,2.9,2.9,7.556,7.556,0,0,0,.965,5.984,8.8,8.8,0,0,0,.193,10.23,57.033,57.033,0,0,0,0,17.372a57.033,57.033,0,0,0,.193,7.142A11.917,11.917,0,0,0,.965,28.76,7.556,7.556,0,0,0,2.9,31.849a7.556,7.556,0,0,0,3.088,1.93,11.916,11.916,0,0,0,4.247.772,57.032,57.032,0,0,0,7.142.193,57.032,57.032,0,0,0,7.142-.193,11.917,11.917,0,0,0,4.247-.772,8.1,8.1,0,0,0,5.019-5.019,11.916,11.916,0,0,0,.772-4.247c0-1.93.193-2.509.193-7.142a57.032,57.032,0,0,0-.193-7.142,11.917,11.917,0,0,0-.772-4.247A7.556,7.556,0,0,0,31.849,2.9,7.556,7.556,0,0,0,28.76.965,11.917,11.917,0,0,0,24.514.193,57.033,57.033,0,0,0,17.372,0m0,8.493a8.736,8.736,0,0,0-8.879,8.879,8.879,8.879,0,1,0,8.879-8.879m0,14.67a5.687,5.687,0,0,1-5.791-5.791,5.687,5.687,0,0,1,5.791-5.791,5.687,5.687,0,0,1,5.791,5.791,5.687,5.687,0,0,1-5.791,5.791M26.637,5.984A2.123,2.123,0,1,0,28.76,8.107a2.142,2.142,0,0,0-2.123-2.123" fill-rule="evenodd"/>
    </g>
  </g>
</svg>
