<svg xmlns="http://www.w3.org/2000/svg" xmlns:xlink="http://www.w3.org/1999/xlink" width="101.684" height="91.137" viewBox="0 0 101.684 91.137">
  <defs>
    <clipPath id="clip-path">
      <rect id="Rectangle_1117" data-name="Rectangle 1117" width="101.684" height="12.375"/>
    </clipPath>
  </defs>
  <g id="Group_711" data-name="Group 711" transform="translate(-4242.186 -1489.438)" opacity="0.29">
    <g id="Group_710" data-name="Group 710" transform="translate(4242.186 1568.2)" style="mix-blend-mode: normal;isolation: isolate">
      <g id="Group_709" data-name="Group 709">
        <g id="Group_708" data-name="Group 708" clip-path="url(#clip-path)">
          <text id="Tinker_with_STEAM" data-name="Tinker with STEAM" transform="translate(-0.001 8.157)" font-size="10" font-family="Quicksand-Regular, Quicksand"><tspan x="0" y="0">Tin</tspan><tspan y="0" letter-spacing="-0.022em">k</tspan><tspan y="0">er with STEAM</tspan></text>
        </g>
      </g>
    </g>
    <path id="Path_1429" data-name="Path 1429" d="M4260.106,1509.41a.945.945,0,0,0,.453-1,10.588,10.588,0,0,1,10.4-12.608h.024a.951.951,0,0,0,.882-.578,8.434,8.434,0,0,1,7.621-5.093,8.692,8.692,0,0,1,8.688,8.592v46.6a8.687,8.687,0,0,1-8.687,8.589,8.424,8.424,0,0,1-7.621-5.09.956.956,0,0,0-.882-.581h-.024a10.588,10.588,0,0,1-10.4-12.608.942.942,0,0,0-.453-1,14.527,14.527,0,0,1,0-25.227" transform="translate(4.979 0.326)" fill="#60b8ff"/>
    <path id="Path_1430" data-name="Path 1430" d="M4276.135,1548.821a.954.954,0,0,0-.881-.581h-.023a10.593,10.593,0,0,1-10.4-12.608.935.935,0,0,0-.453-1,14.528,14.528,0,0,1,0-25.228.939.939,0,0,0,.453-1,10.593,10.593,0,0,1,10.4-12.608h.023a.951.951,0,0,0,.881-.581,8.447,8.447,0,0,1,5.584-4.81,8.185,8.185,0,0,0-2.237-.279,8.43,8.43,0,0,0-7.62,5.09.955.955,0,0,1-.882.581h-.024a10.6,10.6,0,0,0-10.4,12.608.941.941,0,0,1-.451,1,14.526,14.526,0,0,0,0,25.228.936.936,0,0,1,.451,1,10.6,10.6,0,0,0,10.4,12.608h.024a.955.955,0,0,1,.882.581,8.427,8.427,0,0,0,7.621,5.091,8.245,8.245,0,0,0,2.236-.281,8.443,8.443,0,0,1-5.584-4.811" transform="translate(4.979 0.326)" fill="#22a7ff"/>
    <path id="Path_1431" data-name="Path 1431" d="M4304.687,1509.41a.939.939,0,0,1-.453-1,10.593,10.593,0,0,0-10.4-12.608h-.024a.948.948,0,0,1-.881-.578,8.438,8.438,0,0,0-7.622-5.093,8.57,8.57,0,0,0-8.546,8.592v46.6a8.566,8.566,0,0,0,8.546,8.589,8.428,8.428,0,0,0,7.622-5.09.952.952,0,0,1,.881-.581h.024a10.593,10.593,0,0,0,10.4-12.608.938.938,0,0,1,.453-1,14.527,14.527,0,0,0,0-25.227" transform="translate(16.243 0.326)" fill="#ff646f"/>
    <path id="Path_1432" data-name="Path 1432" d="M4281.037,1545.321v-46.6a8.643,8.643,0,0,1,6.315-8.31,8.337,8.337,0,0,0-2.041-.282,8.569,8.569,0,0,0-8.547,8.592v46.6a8.569,8.569,0,0,0,8.547,8.592,8.4,8.4,0,0,0,2.041-.282,8.643,8.643,0,0,1-6.315-8.31" transform="translate(16.243 0.326)" fill="#ff4755"/>
    <path id="Path_1433" data-name="Path 1433" d="M4280.415,1498.683a12.358,12.358,0,0,0-6.239,22.843,1.905,1.905,0,0,1,.906,1.618v1.793a1.9,1.9,0,0,0,1.9,1.9h7.465a1.9,1.9,0,0,0,1.9-1.9v-1.793a1.911,1.911,0,0,1,.908-1.621,12.358,12.358,0,0,0-6.84-22.84" transform="translate(12.293 4.341)" fill="#ffe55a"/>
    <path id="Path_1434" data-name="Path 1434" d="M4279.2,1524.938v-1.795a1.906,1.906,0,0,0-.905-1.617,12.357,12.357,0,0,1,4.486-22.674,12.359,12.359,0,0,0-8.6,22.674,1.907,1.907,0,0,1,.9,1.617v1.8a1.9,1.9,0,0,0,1.9,1.9h4.118a1.9,1.9,0,0,1-1.9-1.9" transform="translate(12.293 4.341)" fill="#ffd500"/>
    <path id="Path_1435" data-name="Path 1435" d="M4274.635,1523.183v2.086a1.966,1.966,0,0,0,1.959,1.959h2.34a1.966,1.966,0,0,0,1.959-1.959v-2.086Z" transform="translate(15.243 15.852)" fill="#4f66d1"/>
    <path id="Path_1436" data-name="Path 1436" d="M4278.754,1525.269v-2.086h-4.119v2.086a1.966,1.966,0,0,0,1.959,1.959h2.34a1.957,1.957,0,0,0,.889-.216,1.964,1.964,0,0,1-1.07-1.743" transform="translate(15.243 15.852)" fill="#314dca"/>
    <path id="Path_1437" data-name="Path 1437" d="M4281.592,1520.511h-6.367a1.965,1.965,0,0,0-1.959,1.959v.291a1.964,1.964,0,0,0,1.959,1.959h6.367a1.964,1.964,0,0,0,1.959-1.959v-.291a1.965,1.965,0,0,0-1.959-1.959" transform="translate(14.6 14.597)" fill="#d9edff"/>
    <path id="Path_1438" data-name="Path 1438" d="M4281.592,1521.873h-6.367a1.959,1.959,0,0,1-1.582-.811,1.945,1.945,0,0,0-.377,1.149v.292a1.965,1.965,0,0,0,1.959,1.959h6.367a1.965,1.965,0,0,0,1.959-1.959v-.292a1.946,1.946,0,0,0-.378-1.149,1.96,1.96,0,0,1-1.581.811" transform="translate(14.6 14.856)" fill="#b4dbff"/>
    <path id="Path_1439" data-name="Path 1439" d="M4281.592,1517.743h-6.367a1.965,1.965,0,0,0-1.959,1.959v.291a1.964,1.964,0,0,0,1.959,1.959h6.367a1.964,1.964,0,0,0,1.959-1.959v-.291a1.965,1.965,0,0,0-1.959-1.959" transform="translate(14.6 13.297)" fill="#d9edff"/>
    <path id="Path_1440" data-name="Path 1440" d="M4281.592,1519.1h-6.367a1.959,1.959,0,0,1-1.582-.811,1.942,1.942,0,0,0-.377,1.149v.292a1.965,1.965,0,0,0,1.959,1.959h6.367a1.965,1.965,0,0,0,1.959-1.959v-.292a1.943,1.943,0,0,0-.378-1.149,1.96,1.96,0,0,1-1.581.811" transform="translate(14.6 13.555)" fill="#b4dbff"/>
    <path id="Path_1441" data-name="Path 1441" d="M4316.907,1508.9a11.663,11.663,0,0,0-11.414-13.789,9.5,9.5,0,0,0-5.635-5.168,1.063,1.063,0,1,0-.684,2.014,8.07,8.07,0,0,1,5.205,7.757,1.064,1.064,0,0,0,2.128,0,10.883,10.883,0,0,0-.3-2.443,9.526,9.526,0,0,1,8.7,10.594,11.382,11.382,0,0,0-2.66-.833,5.085,5.085,0,0,0-2.437-3.417,1.062,1.062,0,1,0-1.065,1.839,2.94,2.94,0,0,1,0,5.091,1.064,1.064,0,1,0,1.065,1.842,5.1,5.1,0,0,0,2.386-3.2c3.625.773,10.358,5.2,10.358,13.206a13.508,13.508,0,0,1-6.7,11.638,13.753,13.753,0,0,1-3.659,1.561,5.083,5.083,0,0,0-2.386-3.2,1.062,1.062,0,1,0-1.065,1.839,2.943,2.943,0,0,1,0,5.09,1.064,1.064,0,1,0,1.065,1.843,5.1,5.1,0,0,0,2.436-3.42,11.31,11.31,0,0,0,2.661-.832,9.532,9.532,0,0,1-8.705,10.6,10.9,10.9,0,0,0,.3-2.455,1.064,1.064,0,0,0-2.128,0c0,4.249-3.021,8.094-7.47,8.157a7.508,7.508,0,0,1-7.47-7.528v-1.5h.108a3.026,3.026,0,0,0,3.021-3.023v-.911a3.042,3.042,0,0,0,2.015-2.85v-.15a3.016,3.016,0,0,1,0-3.92v-.151a3.062,3.062,0,0,0-.5-1.655,2.967,2.967,0,0,0,.985-2.2v-1.794a.851.851,0,0,1,.408-.717,13.506,13.506,0,0,0,5.983-8.406,1.064,1.064,0,0,0-2.074-.473,11.354,11.354,0,0,1-5.037,7.074h0a2.992,2.992,0,0,0-1.185,1.393l-.008.026c-.267.656-.213.974-.213,2.9a.839.839,0,0,1-.838.836h-2.669V1525a4.317,4.317,0,0,0,3.376-4.206v-1.536a1.064,1.064,0,0,0-.329-2.075h-8.272a1.063,1.063,0,0,0-.276,2.09v1.521a4.319,4.319,0,0,0,3.377,4.206v5.16h-2.67a.836.836,0,0,1-.837-.836,20.683,20.683,0,0,0-.023-2.174,2.947,2.947,0,0,0-1.381-2.138,11.29,11.29,0,1,1,17.089-11.617,1.064,1.064,0,0,0,2.095-.378,13.424,13.424,0,0,0-12.145-10.968v-2.954a7.555,7.555,0,0,1,5.406-7.249,1.064,1.064,0,0,0-.59-2.044,9.622,9.622,0,0,0-5.885,4.9,9.436,9.436,0,0,0-17.111.413,11.663,11.663,0,0,0-11.413,13.789,15.6,15.6,0,0,0,0,26.982,11.668,11.668,0,0,0,11.413,13.794,365.36,365.36,0,0,0,34.231,0,11.667,11.667,0,0,0,11.414-13.794,15.6,15.6,0,0,0,0-26.982m-30.842,11.892v-1.483h4.623v1.483a2.187,2.187,0,0,1-2.186,2.184h-.25a2.188,2.188,0,0,1-2.187-2.184m4.377,20.372a.9.9,0,0,1-.9.9h-2.34a.9.9,0,0,1-.9-.9v-.738h4.13Zm1.118-8.877a.9.9,0,0,1,.9.9v.151a.9.9,0,0,1-.9.9h-6.367a.9.9,0,0,1-.9-.9v-.151a.9.9,0,0,1,.9-.9Zm0,4.07a.9.9,0,0,1,.9.9v.15a.9.9,0,0,1-.951.9h-6.258a.9.9,0,0,1-.95-.9v-.15a.9.9,0,0,1,.9-.9Zm-11.715,16.861c-4.454-.063-7.469-3.917-7.469-8.157a1.064,1.064,0,0,0-2.129,0,10.9,10.9,0,0,0,.3,2.455,9.533,9.533,0,0,1-8.705-10.6,11.3,11.3,0,0,0,2.66.832,5.092,5.092,0,0,0,2.437,3.42,1.064,1.064,0,0,0,1.065-1.843,2.941,2.941,0,0,1,0-5.088,1.063,1.063,0,1,0-1.066-1.84,5.087,5.087,0,0,0-2.386,3.2c-3.552-.758-10.357-5.069-10.357-13.2,0-8.2,6.94-12.477,10.357-13.206a5.1,5.1,0,0,0,2.386,3.2,1.064,1.064,0,1,0,1.066-1.842,2.944,2.944,0,0,1,0-5.091,1.063,1.063,0,1,0-1.065-1.839,5.083,5.083,0,0,0-2.437,3.417,11.423,11.423,0,0,0-2.662.833,9.527,9.527,0,0,1,8.705-10.594,10.879,10.879,0,0,0-.3,2.443,1.063,1.063,0,0,0,2.127,0,10.09,10.09,0,0,1,.8-3.677l0-.009.005-.013a7.375,7.375,0,0,1,6.758-4.447,7.51,7.51,0,0,1,7.369,7.526v2.948a13.422,13.422,0,0,0-6.038,24.77.845.845,0,0,1,.406.716v1.794a2.967,2.967,0,0,0,.983,2.2,3.052,3.052,0,0,0-.494,1.655v.151a3.021,3.021,0,0,1,0,3.92v.15a3.04,3.04,0,0,0,2.013,2.85v.911a3.027,3.027,0,0,0,3.024,3.023h.106v1.5a7.506,7.506,0,0,1-7.468,7.528" transform="translate(4.65 0)"/>
  </g>
</svg>
